<svg width="103" height="108" viewBox="0 0 103 108" fill="none" xmlns="http://www.w3.org/2000/svg">
<g clip-path="url(#clip0)">
<path d="M51.3169 98.4502C74.634 98.4502 93.5362 79.548 93.5362 56.231C93.5362 32.9139 74.634 14.0117 51.3169 14.0117C27.9999 14.0117 9.09766 32.9139 9.09766 56.231C9.09766 79.548 27.9999 98.4502 51.3169 98.4502Z" stroke="#3AD29F" stroke-width="2" stroke-miterlimit="10" stroke-dasharray="12 12"/>
<path d="M51.317 107.405C79.58 107.405 102.492 84.4936 102.492 56.2305C102.492 27.9674 79.58 5.05566 51.317 5.05566C23.0539 5.05566 0.14209 27.9674 0.14209 56.2305C0.14209 84.4936 23.0539 107.405 51.317 107.405Z" stroke="#3AD29F" stroke-width="2" stroke-miterlimit="10" stroke-dasharray="12 12"/>
<path d="M85.5671 72.5343C85.5678 69.6593 84.4956 66.8874 82.5604 64.7611C80.6252 62.6348 77.9662 61.3072 75.1037 61.038C72.2412 60.7689 69.3813 61.5775 67.0837 63.3057C64.786 65.0339 63.2158 67.5573 62.6805 70.3822L27.2007 69.4198L27.5902 75.5153C27.5902 75.5153 22.531 87.1888 49.1206 90.2991V102.098H79.8597V82.4808C81.5956 81.4643 83.0355 80.0116 84.0367 78.2669C85.0379 76.5221 85.5654 74.5459 85.5671 72.5343V72.5343Z" fill="url(#paint0_linear)"/>
<path d="M28.8085 75.7718C28.8085 75.7718 23.964 86.9507 49.4278 89.933V101.237H78.8661V71.3011L28.4304 69.9336L28.8085 75.7718Z" fill="#BE7C5E"/>
<path d="M43.5213 29.1212C42.7538 30.3325 41.538 31.1907 40.1396 31.5085C38.7413 31.8263 37.274 31.5777 36.0584 30.8171L20.2524 20.4016C19.0412 19.634 18.1829 18.4182 17.8652 17.0199C17.5474 15.6216 17.796 14.1543 18.5566 12.9386V12.9386C19.3241 11.7289 20.5388 10.8718 21.9358 10.5541C23.3327 10.2364 24.7987 10.4839 26.0139 11.2427L41.8198 21.6582C43.032 22.4249 43.8914 23.6403 44.2103 25.0387C44.5291 26.4371 44.2814 27.9049 43.5213 29.1212V29.1212Z" fill="url(#paint1_linear)"/>
<path d="M42.6459 28.5524C41.9324 29.6783 40.8023 30.476 39.5025 30.7714C38.2027 31.0668 36.8389 30.8358 35.7089 30.1288L21.0117 20.4397C19.8858 19.7262 19.0881 18.5962 18.7927 17.2964C18.4973 15.9966 18.7283 14.6327 19.4353 13.5027V13.5027C20.1488 12.3768 21.2788 11.579 22.5786 11.2837C23.8784 10.9883 25.2423 11.2193 26.3723 11.9262L41.0666 21.6096C42.1945 22.3227 42.994 23.4537 43.29 24.7549C43.586 26.0561 43.3544 27.4215 42.6459 28.5524V28.5524Z" fill="#BE7C5E"/>
<path d="M73.2781 83.9708C79.3837 83.9708 84.3333 79.0212 84.3333 72.9156C84.3333 66.8099 79.3837 61.8604 73.2781 61.8604C67.1725 61.8604 62.2229 66.8099 62.2229 72.9156C62.2229 79.0212 67.1725 83.9708 73.2781 83.9708Z" fill="#BE7C5E"/>
<path d="M71.2879 0H28.9379C27.9762 0 27.1965 0.779637 27.1965 1.74137V80.9857C27.1965 81.9474 27.9762 82.727 28.9379 82.727H71.2879C72.2497 82.727 73.0293 81.9474 73.0293 80.9857V1.74137C73.0293 0.779637 72.2497 0 71.2879 0Z" fill="url(#paint2_linear)"/>
<path d="M70.4692 1.11816H29.7539C28.683 1.11816 27.8149 1.98627 27.8149 3.05712V79.6716C27.8149 80.7424 28.683 81.6105 29.7539 81.6105H70.4692C71.54 81.6105 72.4081 80.7424 72.4081 79.6716V3.05712C72.4081 1.98627 71.54 1.11816 70.4692 1.11816Z" fill="white"/>
<path d="M61.3145 3.13672C61.1855 3.99034 60.7553 4.76961 60.1016 5.33358C59.4479 5.89754 58.614 6.20895 57.7507 6.21148H42.3499C41.4869 6.20861 40.6533 5.89705 40 5.33311C39.3466 4.76918 38.9166 3.9901 38.7876 3.13672H30.628C30.4056 3.13653 30.1853 3.18019 29.9797 3.26519C29.7741 3.35019 29.5873 3.47486 29.43 3.6321C29.2726 3.78933 29.1478 3.97603 29.0626 4.18153C28.9774 4.38703 28.9336 4.6073 28.9336 4.82975V77.8961C28.9334 78.1185 28.9771 78.3389 29.0621 78.5444C29.1471 78.75 29.2717 78.9368 29.429 79.0942C29.5862 79.2515 29.7729 79.3764 29.9784 79.4615C30.1839 79.5467 30.4042 79.5905 30.6266 79.5905H69.5963C69.8187 79.5907 70.039 79.5471 70.2446 79.4621C70.4502 79.3771 70.637 79.2524 70.7944 79.0952C70.9517 78.9379 71.0766 78.7512 71.1617 78.5457C71.2469 78.3402 71.2907 78.12 71.2907 77.8975V4.83118C71.2909 4.60872 71.2473 4.38842 71.1623 4.18284C71.0773 3.97727 70.9526 3.79046 70.7954 3.6331C70.6381 3.47574 70.4514 3.3509 70.2459 3.26573C70.0404 3.18056 69.8202 3.13672 69.5977 3.13672H61.3145Z" fill="#FD3D3D"/>
<path d="M54.8594 4.09961H45.4901C45.3331 4.09961 45.2058 4.2269 45.2058 4.38391V4.43651C45.2058 4.59353 45.3331 4.72082 45.4901 4.72082H54.8594C55.0164 4.72082 55.1437 4.59353 55.1437 4.43651V4.38391C55.1437 4.2269 55.0164 4.09961 54.8594 4.09961Z" fill="#DBDBDB"/>
<path d="M57.2548 4.72144C57.4605 4.72144 57.6272 4.55469 57.6272 4.349C57.6272 4.14331 57.4605 3.97656 57.2548 3.97656C57.0491 3.97656 56.8823 4.14331 56.8823 4.349C56.8823 4.55469 57.0491 4.72144 57.2548 4.72144Z" fill="#DBDBDB"/>
<path d="M80.424 74.8654C77.2156 75.6075 75.0136 73.515 74.2716 70.308L66.8996 42.9337C66.5472 41.3872 66.8211 39.7641 67.6614 38.4188C68.5017 37.0735 69.8401 36.1154 71.3845 35.7536V35.7536C72.931 35.4012 74.5541 35.6751 75.8994 36.5154C77.2447 37.3557 78.2028 38.6941 78.5646 40.2385L84.5805 68.3193C85.3225 71.5277 83.6309 74.1234 80.424 74.8654Z" fill="url(#paint3_linear)"/>
<path d="M77.7376 40.909C77.1121 38.2019 74.4105 36.5144 71.7034 37.1399C68.9963 37.7654 67.3088 40.467 67.9343 43.1741L74.7132 72.5133C75.3387 75.2204 78.0403 76.9079 80.7474 76.2824C83.4545 75.6569 85.1419 72.9553 84.5165 70.2482L77.7376 40.909Z" fill="#BE7C5E"/>
<path d="M84.2866 97.5371H42.2095V107.346H84.2866V97.5371Z" fill="url(#paint4_linear)"/>
<path d="M83.1493 98.6748H43.3467V106.351H83.1493V98.6748Z" fill="#3F3D56"/>
<path d="M37.3863 58.4872C36.628 59.684 35.4269 60.5321 34.0453 60.8461C32.6637 61.1602 31.2139 60.9146 30.0128 60.1631L19.4125 53.3043C18.2157 52.546 17.3676 51.3449 17.0536 49.9633C16.7395 48.5817 16.9851 47.132 17.7365 45.9308V45.9308C18.4948 44.734 19.696 43.8859 21.0776 43.5719C22.4591 43.2578 23.9089 43.5034 25.11 44.2549L35.7103 51.1137C36.9071 51.872 37.7552 53.0731 38.0693 54.4547C38.3833 55.8363 38.1378 57.286 37.3863 58.4872V58.4872Z" fill="url(#paint5_linear)"/>
<path d="M34.725 73.0058C33.96 74.2136 32.748 75.0695 31.3539 75.3865C29.9597 75.7035 28.4968 75.4557 27.2848 74.6974L20.7187 69.9097C19.5109 69.1447 18.655 67.9327 18.338 66.5386C18.0211 65.1444 18.2688 63.6815 19.0271 62.4695V62.4695C19.7921 61.2616 21.0041 60.4057 22.3983 60.0888C23.7924 59.7718 25.2553 60.0195 26.4674 60.7779L33.0334 65.567C34.2408 66.332 35.0965 67.5437 35.4134 68.9375C35.7304 70.3313 35.4829 71.7939 34.725 73.0058Z" fill="url(#paint6_linear)"/>
<g opacity="0.5">
<path opacity="0.5" d="M50.1116 54.1505C57.1727 54.1505 62.8968 48.4263 62.8968 41.3653C62.8968 34.3042 57.1727 28.5801 50.1116 28.5801C43.0505 28.5801 37.3264 34.3042 37.3264 41.3653C37.3264 48.4263 43.0505 54.1505 50.1116 54.1505Z" fill="url(#paint7_linear)"/>
</g>
<path d="M50.1116 53.3984C56.7573 53.3984 62.1448 48.011 62.1448 41.3652C62.1448 34.7195 56.7573 29.332 50.1116 29.332C43.4658 29.332 38.0784 34.7195 38.0784 41.3652C38.0784 48.011 43.4658 53.3984 50.1116 53.3984Z" fill="#69F0AE"/>
<path d="M44.8887 39.758L49.4007 43.8947L55.7932 34.4941L58.0506 36.3748L49.4007 47.656L43.0081 40.5114L44.8887 39.758Z" fill="white"/>
<path d="M34.1947 72.6483C33.4812 73.7742 32.3512 74.572 31.0514 74.8674C29.7516 75.1627 28.3877 74.9317 27.2577 74.2248L21.1338 69.7669C20.0079 69.0534 19.2101 67.9233 18.9148 66.6235C18.6194 65.3237 18.8504 63.9599 19.5573 62.8298V62.8298C20.2708 61.704 21.4009 60.9062 22.7007 60.6108C24.0005 60.3154 25.3643 60.5464 26.4944 61.2534L32.6169 65.7198C33.7406 66.433 34.537 67.5614 34.8326 68.8591C35.1281 70.1569 34.8989 71.5188 34.1947 72.6483V72.6483Z" fill="#BE7C5E"/>
<path d="M36.8033 58.11C36.0898 59.2358 34.9597 60.0336 33.6599 60.329C32.3601 60.6244 30.9963 60.3934 29.8662 59.6864L19.8928 53.2327C18.7669 52.5192 17.9692 51.3891 17.6738 50.0893C17.3784 48.7895 17.6094 47.4257 18.3164 46.2957V46.2957C19.0299 45.1698 20.1599 44.372 21.4597 44.0766C22.7595 43.7812 24.1234 44.0123 25.2534 44.7192L35.2268 51.1729C36.3527 51.8864 37.1505 53.0165 37.4458 54.3163C37.7412 55.6161 37.5102 56.9799 36.8033 58.11Z" fill="#BE7C5E"/>
<path d="M40.1268 44.0377C39.3648 45.2398 38.1581 46.0916 36.7701 46.4069C35.3822 46.7223 33.9259 46.4756 32.7193 45.7208L19.2859 36.9742C18.0837 36.2122 17.232 35.0054 16.9166 33.6175C16.6013 32.2296 16.848 30.7733 17.6028 29.5666C18.3648 28.3645 19.5715 27.5128 20.9594 27.1974C22.3474 26.882 23.8037 27.1287 25.0103 27.8835L38.4437 36.6302C39.6459 37.3922 40.4976 38.5989 40.813 39.9868C41.1283 41.3748 40.8816 42.8311 40.1268 44.0377Z" fill="url(#paint8_linear)"/>
<path d="M39.4133 43.5828C38.6997 44.7087 37.5697 45.5065 36.2699 45.8019C34.9701 46.0973 33.6062 45.8663 32.4762 45.1593L19.8943 36.9671C18.7684 36.2536 17.9706 35.1235 17.6753 33.8237C17.3799 32.5239 17.6109 31.1601 18.3178 30.03V30.03C19.0313 28.9041 20.1614 28.1064 21.4612 27.811C22.761 27.5156 24.1248 27.7466 25.2549 28.4536L37.8354 36.6458C38.9615 37.3591 39.7595 38.489 40.0552 39.7889C40.3508 41.0887 40.1201 42.4527 39.4133 43.5828V43.5828Z" fill="#BE7C5E"/>
</g>
<defs>
<linearGradient id="paint0_linear" x1="56.386" y1="102.105" x2="56.386" y2="60.9887" gradientUnits="userSpaceOnUse">
<stop stop-color="#808080" stop-opacity="0.25"/>
<stop offset="0.54" stop-color="#808080" stop-opacity="0.12"/>
<stop offset="1" stop-color="#808080" stop-opacity="0.1"/>
</linearGradient>
<linearGradient id="paint1_linear" x1="12190.2" y1="6268.04" x2="12190.2" y2="3098.37" gradientUnits="userSpaceOnUse">
<stop stop-color="#808080" stop-opacity="0.25"/>
<stop offset="0.54" stop-color="#808080" stop-opacity="0.12"/>
<stop offset="1" stop-color="#808080" stop-opacity="0.1"/>
</linearGradient>
<linearGradient id="paint2_linear" x1="27104.2" y1="54108.1" x2="27104.2" y2="5964.28" gradientUnits="userSpaceOnUse">
<stop stop-color="#808080" stop-opacity="0.25"/>
<stop offset="0.54" stop-color="#808080" stop-opacity="0.12"/>
<stop offset="1" stop-color="#808080" stop-opacity="0.1"/>
</linearGradient>
<linearGradient id="paint3_linear" x1="13963.7" y1="23679.1" x2="13963.7" y2="12751.8" gradientUnits="userSpaceOnUse">
<stop stop-color="#808080" stop-opacity="0.25"/>
<stop offset="0.54" stop-color="#808080" stop-opacity="0.12"/>
<stop offset="1" stop-color="#808080" stop-opacity="0.1"/>
</linearGradient>
<linearGradient id="paint4_linear" x1="28786.4" y1="8202.44" x2="28786.4" y2="7525.65" gradientUnits="userSpaceOnUse">
<stop stop-color="#808080" stop-opacity="0.25"/>
<stop offset="0.54" stop-color="#808080" stop-opacity="0.12"/>
<stop offset="1" stop-color="#808080" stop-opacity="0.1"/>
</linearGradient>
<linearGradient id="paint5_linear" x1="9229.47" y1="8834.84" x2="9229.47" y2="6670.27" gradientUnits="userSpaceOnUse">
<stop stop-color="#808080" stop-opacity="0.25"/>
<stop offset="0.54" stop-color="#808080" stop-opacity="0.12"/>
<stop offset="1" stop-color="#808080" stop-opacity="0.1"/>
</linearGradient>
<linearGradient id="paint6_linear" x1="7442.97" y1="9454.37" x2="7442.97" y2="7749.31" gradientUnits="userSpaceOnUse">
<stop stop-color="#808080" stop-opacity="0.25"/>
<stop offset="0.54" stop-color="#808080" stop-opacity="0.12"/>
<stop offset="1" stop-color="#808080" stop-opacity="0.1"/>
</linearGradient>
<linearGradient id="paint7_linear" x1="9051.4" y1="9769.11" x2="9051.4" y2="5169.25" gradientUnits="userSpaceOnUse">
<stop stop-color="#808080" stop-opacity="0.25"/>
<stop offset="0.54" stop-color="#808080" stop-opacity="0.12"/>
<stop offset="1" stop-color="#808080" stop-opacity="0.1"/>
</linearGradient>
<linearGradient id="paint8_linear" x1="10698.6" y1="7811.2" x2="10698.6" y2="5142.21" gradientUnits="userSpaceOnUse">
<stop stop-color="#808080" stop-opacity="0.25"/>
<stop offset="0.54" stop-color="#808080" stop-opacity="0.12"/>
<stop offset="1" stop-color="#808080" stop-opacity="0.1"/>
</linearGradient>
<clipPath id="clip0">
<rect width="102.634" height="107.548" fill="white"/>
</clipPath>
</defs>
</svg>
