<svg width="133" height="81" viewBox="0 0 133 81" fill="none" xmlns="http://www.w3.org/2000/svg">
<g clip-path="url(#clip0)">
<path d="M68.2833 78.2683C85.5764 78.2683 99.5952 64.2495 99.5952 46.9564C99.5952 29.6633 85.5764 15.6445 68.2833 15.6445C50.9902 15.6445 36.9714 29.6633 36.9714 46.9564C36.9714 64.2495 50.9902 78.2683 68.2833 78.2683Z" fill="#FD3D3D"/>
<path d="M68.2833 75.6769C84.1448 75.6769 97.0031 62.8186 97.0031 46.9571C97.0031 31.0956 84.1448 18.2373 68.2833 18.2373C52.4218 18.2373 39.5635 31.0956 39.5635 46.9571C39.5635 62.8186 52.4218 75.6769 68.2833 75.6769Z" fill="white"/>
<path d="M68.1795 50.897C70.2982 50.897 72.0157 49.1795 72.0157 47.0608C72.0157 44.9421 70.2982 43.2246 68.1795 43.2246C66.0608 43.2246 64.3433 44.9421 64.3433 47.0608C64.3433 49.1795 66.0608 50.897 68.1795 50.897Z" fill="#FD3D3D"/>
<path d="M69.009 19.6885H67.3501V22.7989H69.009V19.6885Z" fill="#FD3D3D"/>
<path d="M69.009 71.3223H67.3501V74.4327H69.009V71.3223Z" fill="#FD3D3D"/>
<path d="M43.9182 47.8894V46.2305H40.8078V47.8894H43.9182Z" fill="#FD3D3D"/>
<path d="M95.5515 47.8894V46.2305H92.4411V47.8894H95.5515Z" fill="#3F3D56"/>
<path d="M67.0737 48.725L68.4914 45.4834L86.2556 55.3218L67.0737 48.725Z" fill="#FD3D3D"/>
<path d="M72.3269 8.07617H64.2397V17.4075H72.3269V8.07617Z" fill="#FD3D3D"/>
<path d="M68.2833 10.6675C73.4368 10.6675 77.6146 9.50698 77.6146 8.07544C77.6146 6.64389 73.4368 5.4834 68.2833 5.4834C63.1297 5.4834 58.9519 6.64389 58.9519 8.07544C58.9519 9.50698 63.1297 10.6675 68.2833 10.6675Z" fill="#FD3D3D"/>
<path d="M85.7536 52.5031L85.2352 53.2289C85.2352 53.2289 82.8505 56.0283 82.7468 54.6804C82.6432 53.3326 84.5094 52.3994 84.5094 52.3994L85.5463 51.7773L85.7536 52.5031Z" fill="#FFB8B8"/>
<path d="M100.512 54.9523L100.946 55.7314C100.946 55.7314 102.456 59.0847 101.193 58.6016C99.9308 58.1185 99.8861 56.0324 99.8861 56.0324L99.7676 54.8291L100.512 54.9523Z" fill="#FFB8B8"/>
<path d="M98.1783 41.1364C99.9219 41.1364 101.335 39.7229 101.335 37.9793C101.335 36.2357 99.9219 34.8223 98.1783 34.8223C96.4347 34.8223 95.0212 36.2357 95.0212 37.9793C95.0212 39.7229 96.4347 41.1364 98.1783 41.1364Z" fill="#2F2E41"/>
<path d="M97.8845 63.909L98.2993 66.6047V67.4342H100.684V66.3974C100.684 66.3974 100.788 64.5311 100.373 64.0127C99.9582 63.4943 97.8845 63.909 97.8845 63.909Z" fill="#FFB8B8"/>
<path d="M93.6335 63.909L94.0483 66.6047V67.4342H96.4329V66.3974C96.4329 66.3974 96.5366 64.5311 96.1219 64.0127C95.7072 63.4943 93.6335 63.909 93.6335 63.909Z" fill="#FFB8B8"/>
<path d="M95.2382 42.2549C95.2382 42.2549 94.321 42.7383 94.9474 43.838C95.5739 44.9376 99.2496 56.3144 99.2496 56.3144L101.37 55.7124L99.5 48.5175L98.4292 43.9953L95.2382 42.2549Z" fill="#6C63FF"/>
<path d="M97.8327 41.2537C99.1497 41.2537 100.217 40.1861 100.217 38.8691C100.217 37.552 99.1497 36.4844 97.8327 36.4844C96.5157 36.4844 95.448 37.552 95.448 38.8691C95.448 40.1861 96.5157 41.2537 97.8327 41.2537Z" fill="#FFB8B8"/>
<path d="M98.9212 39.2324L98.6102 44.1055L96.4329 42.5502C96.4329 42.5502 97.1586 39.6471 96.9513 39.4398L98.9212 39.2324Z" fill="#FFB8B8"/>
<path d="M98.9212 43.6907L96.5756 41.9538C96.5756 41.9538 95.4997 41.5134 95.1887 42.0318C94.8776 42.5502 93.3224 50.2227 94.1519 51.6742C94.1519 51.6742 98.6102 52.6074 99.5433 52.089L99.958 49.3932C99.958 49.3932 100.476 47.7343 99.647 46.6975L98.9212 43.6907Z" fill="#6C63FF"/>
<path d="M95.8108 42.1353C95.8108 42.1353 94.9814 41.5132 94.2556 42.55C93.5298 43.5868 84.8206 51.7777 84.8206 51.7777L86.2721 53.4366L91.9746 48.6672L95.6035 45.7641L95.8108 42.1353Z" fill="#6C63FF"/>
<path d="M99.5951 52.0367C99.5951 52.0367 94.4629 51.0518 93.9445 51.7775L93.8408 52.918C93.8408 52.918 92.7003 55.0953 93.3224 58.6205C93.9445 62.1457 93.5298 64.323 93.5298 64.323C93.5298 64.323 96.3292 64.012 98.4028 64.323C100.476 64.634 100.787 64.323 100.787 64.323L99.5951 52.0367Z" fill="#2F2E41"/>
<path d="M100.891 67.0186L97.8845 67.1222L98.9213 74.8983C98.9213 74.8983 98.0919 78.2162 99.025 78.4235C99.6737 78.5545 100.333 78.6239 100.995 78.6309C100.995 78.6309 101.928 79.564 102.965 79.4603C103.653 79.3724 104.321 79.1617 104.935 78.8382C104.935 78.8382 105.142 78.2162 104.416 78.0088C103.691 77.8014 101.721 77.1793 101.306 75.002L100.891 67.0186Z" fill="#2F2E41"/>
<path d="M96.6403 67.0186L93.6335 67.1222L94.6704 74.8983C94.6704 74.8983 93.8409 78.2162 94.774 78.4235C95.4227 78.5545 96.0823 78.6239 96.744 78.6309C96.744 78.6309 97.6771 79.564 98.7139 79.4603C99.4025 79.3724 100.07 79.1617 100.684 78.8382C100.684 78.8382 100.891 78.2162 100.165 78.0088C99.4397 77.8014 97.4698 77.1793 97.055 75.002L96.6403 67.0186Z" fill="#2F2E41"/>
<path d="M99.2827 35.9633C100.004 35.9633 100.589 35.3784 100.589 34.657C100.589 33.9355 100.004 33.3506 99.2827 33.3506C98.5612 33.3506 97.9763 33.9355 97.9763 34.657C97.9763 35.3784 98.5612 35.9633 99.2827 35.9633Z" fill="#2F2E41"/>
<path d="M101.025 33.9489C101.025 33.626 100.905 33.3146 100.689 33.0746C100.473 32.8347 100.175 32.6833 99.8542 32.6496C99.8995 32.6449 99.9449 32.6426 99.9903 32.6426C100.337 32.6426 100.669 32.7802 100.914 33.0252C101.159 33.2702 101.297 33.6025 101.297 33.9489C101.297 34.2954 101.159 34.6277 100.914 34.8727C100.669 35.1177 100.337 35.2553 99.9903 35.2553C99.9449 35.2553 99.8995 35.2529 99.8542 35.2482C100.175 35.2146 100.473 35.0632 100.689 34.8232C100.905 34.5833 101.025 34.2719 101.025 33.9489V33.9489Z" fill="#2F2E41"/>
<path d="M97.8111 38.6166C99.0135 38.6166 99.9883 38.0318 99.9883 37.3103C99.9883 36.5888 99.0135 36.0039 97.8111 36.0039C96.6086 36.0039 95.6338 36.5888 95.6338 37.3103C95.6338 38.0318 96.6086 38.6166 97.8111 38.6166Z" fill="#2F2E41"/>
<path d="M113.883 32.4967C114.869 32.4967 115.668 31.6975 115.668 30.7117C115.668 29.7259 114.869 28.9268 113.883 28.9268C112.897 28.9268 112.098 29.7259 112.098 30.7117C112.098 31.6975 112.897 32.4967 113.883 32.4967Z" fill="#E6E6E6"/>
<path d="M132.03 48.2629C132.441 48.2629 132.774 47.9299 132.774 47.5191C132.774 47.1084 132.441 46.7754 132.03 46.7754C131.62 46.7754 131.287 47.1084 131.287 47.5191C131.287 47.9299 131.62 48.2629 132.03 48.2629Z" fill="#E6E6E6"/>
</g>
<defs>
<clipPath id="clip0">
<rect width="132.774" height="80.4429" fill="white" transform="translate(0 0.191406)"/>
</clipPath>
</defs>
</svg>
