<svg width="116" height="81" viewBox="0 0 116 81" fill="none" xmlns="http://www.w3.org/2000/svg">
<g clip-path="url(#clip0)">
<path opacity="0.1" d="M112.778 55.1108C112.674 55.1793 112.579 55.246 112.478 55.3107C112.103 55.5507 111.711 55.7674 111.304 55.9593C109.173 56.9776 106.546 57.4751 103.988 57.8129C98.2494 58.5713 92.3907 58.7187 86.557 58.8632C70.7942 59.2555 54.9931 59.6469 39.2686 58.7431C33.0559 58.3864 26.7064 57.7895 21.0767 55.9593C20.2697 55.6977 19.4786 55.4093 18.7034 55.0939C17.1347 54.4547 15.6281 53.6767 14.3752 52.7475C13.1979 51.8765 12.2432 50.876 11.6726 49.7384C10.4829 47.3695 11.1124 44.7086 12.471 42.3866C13.0352 41.4472 13.6715 40.5449 14.3752 39.6864C15.4241 38.3789 16.5807 37.1091 17.6358 35.8026C21.3904 31.1585 23.8403 25.2831 20.3746 20.5198C19.3785 19.1514 17.9392 17.95 17.1274 16.5215C16.092 14.6941 16.1717 12.665 16.501 10.694C16.5438 10.4437 16.589 10.1959 16.6366 9.95061C17.1989 7.0279 18.2571 3.879 21.5198 2.05442C24.9089 0.158514 29.7217 0.254248 33.9277 0.928141C40.4687 1.98685 46.5023 4.19061 52.6002 6.18037C58.698 8.17014 65.0774 9.98815 71.7789 10.1834C77.6965 10.3561 84.5989 9.06366 88.5264 5.70452C92.341 2.44205 99.5116 2.19333 104.68 4.16433C108.227 5.51681 110.874 7.95333 111.99 10.694C112.216 11.2442 112.379 11.8141 112.476 12.3946C112.565 12.9252 112.594 13.4627 112.562 13.9987C112.547 14.2633 112.517 14.5252 112.476 14.7842C111.612 20.1923 105.396 24.4581 101.618 29.2889C99.7715 31.6485 98.4678 34.4829 99.7373 37.0274C101.674 40.9046 108.407 42.2834 112.473 45.1685C113.239 45.6936 113.912 46.3201 114.472 47.0269C116.444 49.5948 115.717 53.0628 112.778 55.1108Z" fill="#6C63FF"/>
<path opacity="0.1" d="M42.2633 80.3545C48.6413 80.3545 53.8118 79.7444 53.8118 78.9917C53.8118 78.2391 48.6413 77.6289 42.2633 77.6289C35.8853 77.6289 30.7148 78.2391 30.7148 78.9917C30.7148 79.7444 35.8853 80.3545 42.2633 80.3545Z" fill="#6C63FF"/>
<path opacity="0.1" d="M18.9366 79.4305C20.8741 79.4305 22.4447 79.1868 22.4447 78.8862C22.4447 78.5855 20.8741 78.3418 18.9366 78.3418C16.9991 78.3418 15.4285 78.5855 15.4285 78.8862C15.4285 79.1868 16.9991 79.4305 18.9366 79.4305Z" fill="#6C63FF"/>
<path d="M19.6986 72.8252C19.6986 72.8252 20.2671 73.5 19.4356 74.5146C18.6041 75.5292 17.9186 76.3918 18.193 77.0272C18.193 77.0272 19.447 75.1359 20.4711 75.1097C21.4951 75.0834 20.8231 73.9627 19.6986 72.8252Z" fill="#6C63FF"/>
<path opacity="0.1" d="M19.6987 72.8252C19.7484 72.8905 19.7874 72.9619 19.8147 73.0373C20.8108 74.0979 21.342 75.0881 20.3842 75.1125C19.4927 75.1359 18.422 76.5813 18.1663 76.9464C18.1747 76.9747 18.1847 77.0026 18.1963 77.03C18.1963 77.03 19.4502 75.1388 20.4743 75.1125C21.4984 75.0862 20.8232 73.9627 19.6987 72.8252Z" fill="black"/>
<path d="M20.7558 73.685C20.7558 73.9224 20.7268 74.1149 20.6905 74.1149C20.6543 74.1149 20.6243 73.9271 20.6243 73.685C20.6243 73.4428 20.6615 73.5592 20.6978 73.5592C20.734 73.5592 20.7558 73.4475 20.7558 73.685Z" fill="#FFD037"/>
<path d="M21.1193 73.9679C20.8894 74.0815 20.6885 74.15 20.6709 74.1209C20.6533 74.0918 20.8262 73.9763 21.0561 73.8628C21.286 73.7492 21.1949 73.8318 21.2125 73.8628C21.2301 73.8937 21.3491 73.8543 21.1193 73.9679Z" fill="#FFD037"/>
<path d="M16.6938 72.8252C16.6938 72.8252 16.1254 73.5 16.9568 74.5146C17.7883 75.5292 18.4738 76.3918 18.1994 77.0272C18.1994 77.0272 16.9454 75.1359 15.9214 75.1097C14.8973 75.0834 15.5714 73.9627 16.6938 72.8252Z" fill="#6C63FF"/>
<path opacity="0.1" d="M16.6939 72.8252C16.6442 72.8905 16.6052 72.9619 16.5779 73.0373C15.5818 74.0979 15.0506 75.0881 16.0084 75.1125C16.901 75.1359 17.9706 76.5813 18.2264 76.9464C18.2184 76.9749 18.2083 77.0028 18.1963 77.03C18.1963 77.03 16.9424 75.1388 15.9183 75.1125C14.8942 75.0862 15.5714 73.9627 16.6939 72.8252Z" fill="black"/>
<path d="M15.6367 73.685C15.6367 73.9224 15.6657 74.1149 15.7019 74.1149C15.7382 74.1149 15.7682 73.9271 15.7682 73.685C15.7682 73.4428 15.7309 73.5592 15.6947 73.5592C15.6585 73.5592 15.6367 73.4475 15.6367 73.685Z" fill="#FFD037"/>
<path d="M15.2742 73.9679C15.504 74.0815 15.7039 74.15 15.7215 74.1209C15.7391 74.0918 15.5662 73.9763 15.3363 73.8628C15.1064 73.7492 15.1975 73.8318 15.1799 73.8628C15.1623 73.8937 15.0443 73.8543 15.2742 73.9679Z" fill="#FFD037"/>
<path d="M15.8179 76.9414C15.8179 76.9414 17.4083 76.8964 17.8888 76.5876C18.3692 76.2788 20.3345 75.9081 20.4536 76.4046C20.5727 76.9011 22.8435 78.8721 21.048 78.8852C19.2525 78.8984 16.8761 78.6318 16.3977 78.3681C15.9193 78.1043 15.8179 76.9414 15.8179 76.9414Z" fill="#A8A8A8"/>
<path opacity="0.2" d="M21.079 78.7124C19.2835 78.7255 16.9072 78.459 16.4288 78.1952C16.0643 77.9935 15.9193 77.2717 15.8707 76.9395H15.8179C15.8179 76.9395 15.9214 78.1014 16.3967 78.3661C16.872 78.6307 19.2514 78.8963 21.0469 78.8832C21.5647 78.8832 21.7448 78.7124 21.7345 78.4646C21.663 78.6167 21.4653 78.7096 21.079 78.7124Z" fill="black"/>
<path d="M68.9307 76.886C68.9307 76.886 64.5528 76.6467 65.0695 79.4277C65.0695 79.4277 64.9659 79.9185 65.4578 80.1419C65.4578 80.1419 65.4661 79.9364 65.9072 80.0058C66.0641 80.0298 66.2237 80.0367 66.3824 80.0265C66.5975 80.0136 66.802 79.9371 66.9644 79.8087V79.8087C66.9644 79.8087 68.1945 79.3488 68.6729 77.5252C68.6729 77.5252 69.027 77.1272 69.0136 77.0249L68.2742 77.3065C68.2742 77.3065 68.5269 77.7899 68.3281 78.1916C68.3281 78.1916 68.3043 77.3243 68.1624 77.3469C68.1334 77.3469 67.7782 77.5139 67.7782 77.5139C67.7782 77.5139 68.2131 78.3586 67.8818 78.9668C67.8818 78.9668 68.0061 77.9344 67.6395 77.5749L67.1218 77.8499C67.1218 77.8499 67.6291 78.719 67.2854 79.4286C67.2854 79.4286 67.3734 78.3408 67.013 77.9166L66.5419 78.2498C66.5419 78.2498 67.0182 79.1067 66.7273 79.6952C66.7273 79.6952 66.69 78.429 66.4394 78.3333C66.4394 78.3333 66.0252 78.6627 65.9641 78.8026C65.9641 78.8026 66.2903 79.4239 66.0884 79.7524C66.0884 79.7524 65.9641 78.9077 65.8616 78.9077C65.8616 78.9077 65.4474 79.4708 65.4081 79.8463C65.4081 79.8463 65.4267 79.2766 65.7622 78.8504C65.5254 78.8913 65.3069 78.9941 65.1337 79.1461C65.1337 79.1461 65.1979 78.751 65.8585 78.7162C65.8585 78.7162 66.1981 78.292 66.2893 78.2667C66.2893 78.2667 65.6266 78.216 65.2248 78.3774C65.2248 78.3774 65.5779 78.002 66.4104 78.1737L66.8753 77.8302C66.8753 77.8302 66.0035 77.7213 65.6328 77.8415C65.6328 77.8415 66.0594 77.5111 67.0006 77.7476L67.508 77.4736C67.508 77.4736 66.7635 77.3281 66.3203 77.3797C66.3203 77.3797 66.7883 77.1507 67.6561 77.3985L68.0185 77.2511C68.0185 77.2511 67.4728 77.1573 67.3133 77.1394C67.1539 77.1216 67.1456 77.0841 67.1456 77.0841C67.4909 77.0319 67.8454 77.0676 68.1697 77.1873C68.1697 77.1873 68.9442 76.9301 68.9307 76.886Z" fill="#6C63FF"/>
<path opacity="0.1" d="M65.9152 80.859C67.6263 80.859 69.0134 80.6464 69.0134 80.3841C69.0134 80.1218 67.6263 79.9092 65.9152 79.9092C64.2042 79.9092 62.8171 80.1218 62.8171 80.3841C62.8171 80.6464 64.2042 80.859 65.9152 80.859Z" fill="#6C63FF"/>
<path d="M61.261 77.0351C61.261 77.0351 58.7925 76.9 59.0866 78.4684C59.0717 78.5479 59.085 78.6296 59.1244 78.7019C59.1638 78.7742 59.2274 78.8334 59.3061 78.871C59.3061 78.871 59.3061 78.7546 59.5598 78.7941C59.6481 78.8071 59.7377 78.8112 59.8269 78.8062C59.9481 78.7982 60.0631 78.7551 60.1552 78.6833V78.6833C60.1552 78.6833 60.8489 78.4233 61.1192 77.3956C61.1192 77.3956 61.318 77.1712 61.3107 77.114L60.8966 77.2745C60.8966 77.2745 61.0384 77.5476 60.9266 77.7738C60.9266 77.7738 60.9131 77.2848 60.8334 77.2961C60.8168 77.2961 60.617 77.3899 60.617 77.3899C60.617 77.3899 60.8614 77.8592 60.677 78.2093C60.677 78.2093 60.7464 77.6246 60.5404 77.4237L60.2473 77.5795C60.2473 77.5795 60.5331 78.0695 60.3395 78.4693C60.3395 78.4693 60.3892 77.8555 60.1852 77.6171L59.9201 77.8048C59.9201 77.8048 60.1883 78.2882 60.0237 78.6195C60.0237 78.6195 60.0019 77.9052 59.8611 77.8517C59.7603 77.9288 59.6702 78.0167 59.5929 78.1136C59.5929 78.1136 59.7772 78.4646 59.6633 78.6495C59.6633 78.6495 59.5929 78.1736 59.536 78.1718C59.536 78.1718 59.304 78.4871 59.2802 78.703C59.2907 78.5027 59.3593 78.3085 59.479 78.1399C59.3456 78.1627 59.2225 78.2205 59.1249 78.306C59.1249 78.306 59.1611 78.0826 59.5391 78.0638C59.5391 78.0638 59.7296 77.8245 59.7814 77.8104C59.7814 77.8104 59.4076 77.7813 59.1808 77.8724C59.1808 77.8724 59.3807 77.6621 59.8497 77.7579L60.1117 77.5636C60.1117 77.5636 59.6198 77.5026 59.4117 77.5701C59.4117 77.5701 59.6519 77.3824 60.1831 77.5195L60.4679 77.3655C60.2484 77.3215 60.0235 77.3038 59.799 77.313C59.799 77.313 60.063 77.1844 60.5518 77.3233L60.7588 77.2407C60.7588 77.2407 60.4482 77.1853 60.3623 77.1769C60.2763 77.1684 60.267 77.1459 60.267 77.1459C60.4618 77.1165 60.6618 77.1367 60.8448 77.2041C60.8448 77.2041 61.2683 77.0605 61.261 77.0351Z" fill="#6C63FF"/>
<path opacity="0.1" d="M59.5608 79.2752C60.5255 79.2752 61.3076 79.1555 61.3076 79.0077C61.3076 78.86 60.5255 78.7402 59.5608 78.7402C58.596 78.7402 57.814 78.86 57.814 79.0077C57.814 79.1555 58.596 79.2752 59.5608 79.2752Z" fill="#6C63FF"/>
<path d="M65.9587 73.7115C65.9587 73.7115 62.9797 73.5482 63.3308 75.4413C63.3127 75.5373 63.3286 75.6361 63.3763 75.7234C63.4239 75.8107 63.5007 75.8822 63.5958 75.9275C63.5958 75.9275 63.5958 75.7877 63.9013 75.8336C64.0081 75.8491 64.1164 75.8538 64.2244 75.8477C64.3707 75.8382 64.5098 75.7862 64.6209 75.6994V75.6994C64.6209 75.6994 65.4586 75.3859 65.7837 74.1442C65.7837 74.1442 66.025 73.8739 66.0157 73.8045L65.5125 73.9987C65.5125 73.9987 65.6843 74.3282 65.5497 74.6013C65.5497 74.6013 65.5332 74.0109 65.4358 74.025C65.4172 74.025 65.1749 74.1386 65.1749 74.1386C65.1749 74.1386 65.471 74.7121 65.2474 75.1278C65.2474 75.1278 65.3323 74.422 65.0827 74.1799L64.7286 74.3676C64.7286 74.3676 65.0745 74.9589 64.8404 75.4423C64.8404 75.4423 64.9005 74.7017 64.6541 74.4098L64.3331 74.636C64.3331 74.636 64.6582 75.2189 64.4604 75.6197C64.4604 75.6197 64.4346 74.758 64.2637 74.6923C64.2637 74.6923 63.9831 74.9167 63.9406 75.0086C63.9406 75.0086 64.1633 75.4319 64.0245 75.6553C64.0245 75.6553 63.9406 75.0819 63.8713 75.079C63.8713 75.079 63.5917 75.4545 63.5606 75.7201C63.574 75.479 63.6568 75.2454 63.8008 75.0424C63.6398 75.0702 63.4911 75.14 63.3732 75.2433C63.3732 75.2433 63.4167 74.9739 63.8702 74.9505C63.8702 74.9505 64.1011 74.6623 64.1633 74.6445C64.1633 74.6445 63.7118 74.6107 63.4384 74.7205C63.4384 74.7205 63.6787 74.4662 64.2461 74.5816L64.5629 74.3479C64.5629 74.3479 63.9686 74.2737 63.717 74.3554C63.717 74.3554 64.0069 74.1311 64.6489 74.2944L64.9937 74.1067C64.9937 74.1067 64.4874 74.0128 64.186 74.0438C64.186 74.0438 64.5039 73.888 65.0952 74.056L65.3416 73.9565C65.3416 73.9565 64.9699 73.8899 64.8612 73.8795C64.7524 73.8692 64.7473 73.842 64.7473 73.842C64.9823 73.8066 65.2235 73.8309 65.4441 73.9124C65.4441 73.9124 65.9691 73.7416 65.9587 73.7115Z" fill="#6C63FF"/>
<path opacity="0.1" d="M63.9076 76.4153C65.0725 76.4153 66.0168 76.2707 66.0168 76.0924C66.0168 75.9141 65.0725 75.7695 63.9076 75.7695C62.7427 75.7695 61.7983 75.9141 61.7983 76.0924C61.7983 76.2707 62.7427 76.4153 63.9076 76.4153Z" fill="#6C63FF"/>
<path d="M112.668 55.292V9.38379H14.1599V52.6584C15.418 53.6101 16.9308 54.4107 18.5088 55.0686C19.2861 55.3934 20.08 55.6903 20.8904 55.9593H111.493L112.668 55.292Z" fill="url(#paint0_linear)"/>
<path d="M112.478 55.3103V10.6973H14.3752V52.7545C15.6281 53.68 17.1347 54.458 18.7035 55.101C19.478 55.4138 20.2691 55.7023 21.0767 55.9663H111.304L112.478 55.3103Z" fill="white"/>
<path d="M112.478 9.51465H14.3762V11.8742H112.478V9.51465Z" fill="#5A5773"/>
<path d="M16.3354 11.3041C16.7071 11.3041 17.0084 11.031 17.0084 10.6941C17.0084 10.3571 16.7071 10.084 16.3354 10.084C15.9637 10.084 15.6624 10.3571 15.6624 10.6941C15.6624 11.031 15.9637 11.3041 16.3354 11.3041Z" fill="white"/>
<path d="M18.1474 11.3041C18.5191 11.3041 18.8205 11.031 18.8205 10.6941C18.8205 10.3571 18.5191 10.084 18.1474 10.084C17.7757 10.084 17.4744 10.3571 17.4744 10.6941C17.4744 11.031 17.7757 11.3041 18.1474 11.3041Z" fill="white"/>
<path d="M19.9594 11.3041C20.3311 11.3041 20.6325 11.031 20.6325 10.6941C20.6325 10.3571 20.3311 10.084 19.9594 10.084C19.5877 10.084 19.2864 10.3571 19.2864 10.6941C19.2864 11.031 19.5877 11.3041 19.9594 11.3041Z" fill="white"/>
<path d="M55.6507 17.0596H39.4458V26.2895H55.6507V17.0596Z" fill="#FD3D3D"/>
<path opacity="0.2" d="M33.2135 17.0596H17.0085V26.2895H33.2135V17.0596Z" fill="#5A5773"/>
<path opacity="0.2" d="M78.0882 17.0596H61.8833V26.2895H78.0882V17.0596Z" fill="#5A5773"/>
<path opacity="0.2" d="M33.2135 30.2549H17.0085V39.4848H33.2135V30.2549Z" fill="#5A5773"/>
<path opacity="0.2" d="M55.6507 30.2549H39.4458V39.4848H55.6507V30.2549Z" fill="#5A5773"/>
<path opacity="0.2" d="M78.0882 30.2549H61.8833V39.4848H78.0882V30.2549Z" fill="#5A5773"/>
<path opacity="0.2" d="M33.2135 43.4492H17.0085V52.6791H33.2135V43.4492Z" fill="#5A5773"/>
<path opacity="0.2" d="M55.6507 43.4492H39.4458V52.6791H55.6507V43.4492Z" fill="#5A5773"/>
<path opacity="0.2" d="M78.0882 43.4492H61.8833V52.6791H78.0882V43.4492Z" fill="#5A5773"/>
<path d="M51.6796 25.144L50.5613 25.5026L50.1554 24.8925C49.8447 24.4232 49.414 23.7812 49.0961 23.3148C48.5349 22.4945 49.269 21.2443 49.269 21.2443C49.269 21.2443 49.4016 19.9894 49.8737 19.6027C50.3459 19.216 50.4774 21.2443 50.4774 21.2443C52.3733 22.0252 51.3575 23.862 51.3575 23.862L51.5418 24.5903L51.6796 25.144Z" fill="#EFB7B9"/>
<path opacity="0.1" d="M51.6795 25.1442L50.5612 25.5027L50.1553 24.8927V24.8392C50.1553 24.8392 50.7962 24.4403 51.5438 24.5904L51.6795 25.1442Z" fill="black"/>
<path d="M49.8738 29.2555L50.434 28.8256L50.1534 24.9569C50.1534 24.9569 51.603 24.0577 52.6757 25.4646C52.6757 25.4646 52.6322 26.3244 52.6757 26.559C52.7192 26.7936 52.3744 27.0283 52.6757 27.262C52.9771 27.4957 52.6757 28.2785 52.6757 28.2785C52.6757 28.2785 53.0164 28.8256 53.2318 28.9814C53.4472 29.1372 53.6636 30.4278 53.2318 30.7009C52.8 30.974 51.9903 31.6001 51.9903 31.8732C51.9903 32.1463 50.9548 32.8117 50.9548 32.8117L50.0457 31.7221L49.8738 29.2555Z" fill="#FF6484"/>
<path d="M37.7589 52.7396C35.6694 51.9362 36.1332 49.9737 36.5267 48.9853C36.6053 48.7851 36.6977 48.5895 36.8032 48.3997L37.9753 47.7549C37.9753 47.7549 38.2145 48.3077 38.4702 49.0492C39.0636 50.7743 39.7459 53.5045 37.7589 52.7396Z" fill="#EFB7B9"/>
<path d="M40.6312 70.6472C40.4897 70.8971 40.3853 71.1628 40.3205 71.4375C40.2171 71.8794 40.1719 72.3309 40.1859 72.7825C40.1942 73.095 40.2232 73.2996 40.2232 73.2996L37.8955 74.7506C37.8955 74.7506 37.909 74.5808 37.9317 74.3311C37.9918 73.6666 38.1171 72.4333 38.2351 72.2738C38.3169 72.163 38.3739 71.7181 38.4101 71.3052C38.4464 70.8922 38.4609 70.5299 38.4609 70.5299C38.4609 70.5299 41.2618 69.5782 40.6312 70.6472Z" fill="#EFB7B9"/>
<path d="M46.1285 71.6876C46.1285 71.6876 46.1285 72.0912 46.1119 72.5605C46.0954 73.0298 46.0643 73.5835 45.9991 73.8416C45.939 74.0781 45.9349 74.5127 45.9463 74.9135C45.9618 75.3828 45.9991 75.8051 45.9991 75.8051C45.9991 75.8051 43.6227 73.7684 43.865 73.607C43.9302 73.5638 43.9944 73.3902 44.0535 73.1593C44.1259 72.8777 44.1912 72.5023 44.2398 72.1832C44.2978 71.803 44.3341 71.4971 44.3341 71.4971L46.1285 71.6876Z" fill="#EFB7B9"/>
<path opacity="0.1" d="M40.6312 70.6472C40.4897 70.8971 40.3852 71.1628 40.3205 71.4375C39.6834 71.4223 39.0475 71.3782 38.4153 71.3052C38.4505 70.9016 38.466 70.5299 38.466 70.5299C38.466 70.5299 41.2617 69.5782 40.6312 70.6472Z" fill="black"/>
<path opacity="0.1" d="M46.1284 71.6877C46.1284 71.6877 46.1284 72.0913 46.1119 72.5605C45.3705 72.7323 44.6084 72.3888 44.2397 72.1851C44.2977 71.805 44.334 71.499 44.334 71.499L46.1284 71.6877Z" fill="black"/>
<path d="M50.9942 51.7244C50.0457 53.6015 49.6574 55.8278 49.6574 55.8278L49.3126 57.7049C49.3126 57.7049 49.4856 58.5252 49.3126 58.8378C49.1397 59.1503 48.7949 59.659 48.7949 59.659C48.7949 59.659 49.0538 61.5737 48.7949 61.7689C48.536 61.9642 48.7949 63.1364 48.7949 63.1364L47.9324 67.0784L46.725 72.158C45.5612 73.0186 44.0121 71.9243 44.0121 71.9243L44.3538 68.6027C44.3538 68.6027 44.8716 62.7835 44.6562 62.5451C44.4408 62.3067 44.7421 61.5681 44.7421 61.5681C44.7421 61.5681 45.0445 60.8642 44.8291 60.591C44.6137 60.3179 44.8716 59.7313 44.8716 59.7313C44.8716 59.7313 44.7856 57.3473 45.0445 56.8002C45.3033 56.253 45.0445 52.8685 45.0445 52.8685L44.9409 51.8145L44.8809 51.2307L44.8757 51.1734C44.8757 51.1734 44.8364 51.4071 44.7722 51.7694C44.5816 52.8722 44.1757 55.1577 44.0152 55.6279C43.9061 55.9667 43.7579 56.2942 43.5731 56.6049C43.5731 56.6049 43.7968 57.7772 43.5731 58.0898C43.3494 58.4023 43.5389 58.7543 43.5389 58.7543C43.5389 58.7543 43.7543 59.7313 43.1071 60.1218C42.46 60.5122 43.1071 60.7084 43.1071 60.7084C43.1071 60.7084 42.6329 61.6469 42.461 62.0364C42.2891 62.4259 42.461 62.975 42.461 62.975L42.1162 66.1399C42.1162 66.1399 41.8139 67.4679 41.8573 68.3671C41.9008 69.2662 41.469 71.3367 41.469 71.3367C41.469 71.3367 38.1494 71.3367 37.6379 70.9848C37.1263 70.6328 38.4921 67.1995 38.4921 67.1995C38.4921 67.1995 38.8804 61.1814 38.7934 61.0256C38.7064 60.8698 38.7934 59.6966 39.0958 59.4629C39.3981 59.2292 39.0958 58.759 39.0958 58.759C39.0958 58.759 39.0098 57.8204 39.0958 57.5867C39.1817 57.353 39.0823 56.5702 39.0823 56.5702C39.0823 56.5702 38.7934 54.6555 38.751 53.5612C38.7085 52.4668 38.4921 50.0059 38.4921 50.0059C38.4921 50.0059 38.7178 48.4835 38.752 47.7589C38.7644 47.4924 38.8959 47.1592 39.0626 46.8457C39.2492 46.4917 39.4638 46.1505 39.7046 45.8245C39.7046 45.8245 49.9194 43.0877 50.3481 43.3599C50.462 43.4321 50.6277 43.923 50.7913 44.6335C51.2469 46.6186 51.6921 50.3447 50.9942 51.7244Z" fill="#444053"/>
<path d="M44.7007 27.8403C46.3437 27.8403 47.6756 26.633 47.6756 25.1438C47.6756 23.6545 46.3437 22.4473 44.7007 22.4473C43.0577 22.4473 41.7258 23.6545 41.7258 25.1438C41.7258 26.633 43.0577 27.8403 44.7007 27.8403Z" fill="#A1616A"/>
<path opacity="0.1" d="M50.7912 44.6354C50.4484 44.7949 50.2186 44.9047 50.2186 44.9047C50.2186 44.9047 45.3902 46.9762 44.0172 46.8588C42.9548 46.765 40.243 46.8185 39.0615 46.8448C39.2481 46.4908 39.4627 46.1495 39.7035 45.8236C39.7035 45.8236 49.9193 43.0877 50.348 43.3599C50.4619 43.434 50.6276 43.923 50.7912 44.6354Z" fill="black"/>
<path d="M42.6306 29.4507C42.6306 29.4507 39.8753 29.8449 39.225 30.2316C38.5747 30.6183 37.2866 31.3654 37.2866 32.9675C37.2866 34.5697 36.9853 36.2112 36.8124 36.6796C36.6395 37.1479 39.5284 40.9388 39.5284 40.9388L38.4929 46.6838C38.4929 46.6838 42.6348 46.5665 44.014 46.6838C45.3932 46.8011 50.2195 44.7297 50.2195 44.7297C50.2195 44.7297 53.065 43.3622 53.6686 43.3218C54.2723 43.2815 52.4613 40.3128 52.4613 40.3128C52.4613 40.3128 49.6583 35.5073 50.1325 34.7255C50.6068 33.9437 50.9547 32.8108 50.9547 32.8108L50.437 28.8256C50.437 28.8256 49.6614 28.591 49.0142 29.0209C48.3671 29.4507 46.1688 29.2161 46.1688 29.2161L42.6306 29.4507Z" fill="#FF6484"/>
<path opacity="0.1" d="M37.9536 36.4062L36.8726 36.6794L36.5734 40.3567C36.5734 40.3567 36.9617 41.3337 36.5734 41.6463C36.1851 41.9588 36.0991 48.6414 36.0991 48.6414C36.0991 48.6414 37.35 49.4617 38.8151 48.8366C38.8151 48.8366 38.5997 48.0942 39.2469 45.3977C39.8941 42.7012 39.893 41.3337 39.893 41.3337C39.893 41.3337 39.893 37.9727 40.1954 37.4255C40.4977 36.8783 40.1954 35.5108 40.1954 35.5108C40.1954 35.5108 39.5917 34.7684 39.6342 34.4953C39.6766 34.2222 37.9536 36.4062 37.9536 36.4062Z" fill="black"/>
<path opacity="0.1" d="M38.4704 49.0521C37.8356 49.2458 37.1446 49.2231 36.5269 48.9883C36.6055 48.788 36.6978 48.5924 36.8033 48.4026L37.9755 47.7578C37.9755 47.7578 38.2188 48.3106 38.4704 49.0521Z" fill="black"/>
<path d="M37.8884 36.4061L36.8105 36.6792L36.5092 40.3565C36.5092 40.3565 36.8974 41.3335 36.5092 41.6461C36.1209 41.9586 36.0349 48.6413 36.0349 48.6413C36.0349 48.6413 37.2868 49.4606 38.7509 48.8327C38.7509 48.8327 38.5355 48.0903 39.1817 45.3938C39.8278 42.6973 39.8288 41.3298 39.8288 41.3298C39.8288 41.3298 39.8288 37.9688 40.1301 37.4216C40.4315 36.8744 40.1301 35.5069 40.1301 35.5069C40.1301 35.5069 39.5265 34.7645 39.57 34.4914C39.6135 34.2182 37.8884 36.4061 37.8884 36.4061Z" fill="#FF6484"/>
<path opacity="0.1" d="M48.9254 36.9912C48.9254 36.9912 48.3652 41.3678 46.7261 42.189C46.7261 42.189 50.3906 41.2514 48.9254 36.9912Z" fill="black"/>
<path opacity="0.1" d="M40.6914 37.3828C40.6914 37.3828 42.7168 38.281 42.2446 38.9061C41.7724 39.5312 40.6914 37.3828 40.6914 37.3828Z" fill="black"/>
<path opacity="0.1" d="M40.6914 39.1807C40.6914 39.1807 41.9847 40.3924 41.7269 40.8222C41.469 41.2521 40.6914 39.1807 40.6914 39.1807Z" fill="black"/>
<path opacity="0.1" d="M51.1235 29.1377C51.1235 29.1377 51.6309 29.9186 51.6796 30.4273C51.7282 30.936 51.1235 29.1377 51.1235 29.1377Z" fill="black"/>
<path opacity="0.1" d="M51.1235 28.0823C51.1235 28.0823 51.3783 27.8861 52.0285 28.0823C52.6788 28.2785 51.1235 28.0823 51.1235 28.0823Z" fill="black"/>
<path opacity="0.1" d="M48.6343 50.9222C47.5661 51.0596 46.4769 50.9331 45.4814 50.5562L44.9377 51.8176L44.8777 51.2339C44.9667 50.7439 45.1397 50.2193 45.4814 50.0869C45.4814 50.0869 46.6783 50.9513 48.6343 50.9222Z" fill="black"/>
<path opacity="0.1" d="M39.7905 52.5645C39.7905 52.5645 42.4423 53.0628 43.1858 52.9746L39.7905 52.5645Z" fill="black"/>
<path opacity="0.1" d="M40.0659 53.1944C40.0659 53.1944 41.1977 53.1503 41.763 53.3558L40.0659 53.1944Z" fill="black"/>
<path opacity="0.1" d="M40.1953 53.6191C40.7117 53.7186 41.2358 53.7813 41.763 53.8069L40.1953 53.6191Z" fill="black"/>
<path opacity="0.1" d="M40.1301 58.9975C40.1788 58.9684 42.3936 58.4991 42.6691 58.8361L40.1301 58.9975Z" fill="black"/>
<path opacity="0.1" d="M40.1301 59.6128C40.1301 59.6128 42.054 59.4073 42.1027 59.6128C42.1513 59.8184 40.1301 59.6128 40.1301 59.6128Z" fill="black"/>
<path opacity="0.1" d="M40.1301 60.17C40.1301 60.17 42.1834 59.7851 42.4257 59.879C42.668 59.9729 40.1301 60.17 40.1301 60.17Z" fill="black"/>
<path opacity="0.1" d="M40.2276 73.3005L37.8999 74.7515C37.8999 74.7515 37.9134 74.5816 37.9361 74.332C38.4539 73.1775 39.1279 72.5684 39.1279 72.5684C39.6529 72.4445 39.9843 72.559 40.1903 72.7833C40.1986 73.0949 40.2276 73.3005 40.2276 73.3005Z" fill="black"/>
<path d="M40.4544 74.6031C40.1255 75.2834 39.9599 76.0192 39.9688 76.7619C39.9819 77.3708 39.8115 77.9715 39.4759 78.4992C39.4274 78.5735 39.3727 78.6444 39.3123 78.7113C39.3123 78.7113 37.6949 78.6991 37.1285 78.2739C37.0649 78.2282 37.0129 78.1706 36.9763 78.105C36.6522 77.5193 37.6069 75.277 37.6069 75.277C38.1081 73.5482 39.1259 72.6246 39.1259 72.6246C40.939 72.1995 40.4544 74.6031 40.4544 74.6031Z" fill="#444053"/>
<path opacity="0.1" d="M39.4758 78.4952C39.4272 78.5695 39.3726 78.6404 39.3122 78.7073C39.3122 78.7073 37.6948 78.6951 37.1284 78.2699C37.407 77.4346 38.2954 74.907 38.7116 75.3369C39.103 75.7405 39.3754 77.6824 39.4758 78.4952Z" fill="black"/>
<path d="M39.2542 75.4936L39.1414 79.2798H39.6839C39.6839 79.2798 39.7719 75.9582 40.0142 75.4936C40.2565 75.029 39.2542 75.4936 39.2542 75.4936Z" fill="#444053"/>
<path opacity="0.1" d="M45.9991 75.8057C45.9991 75.8057 43.6227 73.769 43.865 73.6075C43.9302 73.5643 43.9944 73.3907 44.0535 73.1598C44.5101 73.0875 45.296 73.2602 45.9463 74.914C45.9618 75.3833 45.9991 75.8057 45.9991 75.8057Z" fill="black"/>
<path d="M46.3544 78.0769C46.3362 78.084 46.3171 78.089 46.2975 78.0919C46.0179 78.136 44.9876 78.1107 44.4109 78.0919C44.3052 78.0887 44.205 78.0485 44.1314 77.9797C44.0578 77.9109 44.0166 77.8189 44.0164 77.723C44.0164 77.5822 44.0164 77.4105 44.0039 77.2275C43.977 76.6493 43.9004 75.9613 43.6716 75.8065C43.2667 75.5249 42.9467 74.5694 43.6716 73.3596C43.6716 73.3596 45.0611 72.3976 46.0635 75.2893C46.0635 75.2893 46.1608 76.1143 46.5967 76.4072C47.0327 76.7 46.5491 77.9933 46.3544 78.0769Z" fill="#444053"/>
<path opacity="0.1" d="M46.2952 78.092C46.0157 78.1361 44.9854 78.1108 44.4086 78.092C44.303 78.0888 44.2028 78.0486 44.1292 77.9798C44.0556 77.911 44.0143 77.819 44.0141 77.7231C44.0141 77.5823 44.0141 77.4106 44.0017 77.2276C44.1767 76.5274 44.4283 75.8066 44.7524 75.6423C44.7545 75.6414 45.7351 75.541 46.2952 78.092Z" fill="black"/>
<path d="M43.8474 75.5565L44.1083 78.7073H44.4397V75.2881L43.8474 75.5565Z" fill="#444053"/>
<path opacity="0.1" d="M44.6571 20.847C43.7178 20.9104 42.8086 21.1751 42.0043 21.6194C41.7972 21.733 41.5901 21.871 41.5042 22.0746C41.4296 22.2511 41.4607 22.4501 41.4638 22.6378C41.4917 24.254 39.5036 25.4769 39.5658 27.0922C39.5906 27.7333 39.9458 28.3302 40.011 28.9694C40.1197 30.0356 39.4239 31.0164 38.7571 31.8996C39.4441 31.9375 40.1208 31.7341 40.6468 31.3317C41.3504 33.4576 41.4413 35.7115 40.9108 37.8783H41.8645C41.9587 37.872 42.0533 37.8826 42.143 37.9092C42.2267 37.9453 42.3017 37.996 42.3636 38.0585C43.2551 38.8628 43.8526 40.052 43.5119 41.1501L45.5414 40.4603C46.027 40.2951 46.5199 40.1271 46.9424 39.8549C47.3648 39.5827 47.719 39.1876 47.808 38.7239C47.8629 38.4423 47.8453 38.1063 48.1011 37.943C48.2271 37.8823 48.3615 37.8371 48.5007 37.8088C49.0578 37.6305 49.3043 37.0467 49.4182 36.5211C49.5568 35.8762 49.6004 35.2175 49.5476 34.5623C49.4575 33.4642 49.0992 32.3491 49.3943 31.2773C49.561 30.6757 49.9317 30.1153 49.9618 29.494C50.0104 28.47 49.1272 27.5878 48.9957 26.5694C48.9035 25.8599 49.1862 25.1419 49.0941 24.4323C49.0429 24.0661 48.895 23.7164 48.6631 23.413C48.4311 23.1096 48.1218 22.8614 47.7614 22.6894C47.5119 22.573 47.2437 22.4951 46.9973 22.3665C46.435 22.0709 46.0757 21.5387 45.5652 21.1727C45.0547 20.8066 44.2046 20.6687 43.8205 21.1445L44.6571 20.847Z" fill="black"/>
<path d="M44.6571 20.7297C43.7178 20.7931 42.8086 21.0578 42.0043 21.5022C41.7972 21.6157 41.5901 21.7537 41.5042 21.9574C41.4296 22.1338 41.4607 22.3328 41.4638 22.5205C41.4917 24.1367 39.5036 25.3597 39.5658 26.9759C39.5906 27.616 39.9458 28.2129 40.011 28.853C40.1197 29.9192 39.4239 30.9 38.7571 31.7842C39.4439 31.8207 40.1201 31.6175 40.6468 31.2163C41.3503 33.3416 41.4412 35.5948 40.9108 37.761H41.8645C41.9587 37.7551 42.0534 37.7659 42.143 37.7929C42.2269 37.8282 42.3019 37.8787 42.3636 37.9412C43.2551 38.7465 43.8526 39.9347 43.5119 41.0328L45.5414 40.343C46.027 40.1778 46.5199 40.0098 46.9424 39.7376C47.3648 39.4654 47.719 39.0703 47.808 38.6066C47.8629 38.3251 47.8453 37.9891 48.1011 37.8257C48.2271 37.765 48.3615 37.7199 48.5007 37.6915C49.0578 37.5132 49.3043 36.9294 49.4182 36.4038C49.5581 35.7585 49.6026 35.0991 49.5507 34.4431C49.4606 33.345 49.1023 32.23 49.3974 31.1582C49.5642 30.5565 49.9349 29.9962 49.9649 29.3749C50.0135 28.3509 49.1303 27.4686 48.9988 26.4503C48.9066 25.7407 49.1893 25.0237 49.0972 24.3132C49.0458 23.947 48.8979 23.5974 48.6659 23.294C48.434 22.9906 48.1248 22.7424 47.7645 22.5702C47.515 22.4539 47.2468 22.376 47.0004 22.2483C46.4381 21.9517 46.0788 21.4196 45.5683 21.0535C45.0578 20.6875 44.2077 20.5495 43.8236 21.0254L44.6571 20.7297Z" fill="#925978"/>
<g opacity="0.1">
<path opacity="0.1" d="M41.462 22.1299C41.4577 22.166 41.4555 22.2024 41.4556 22.2388C41.4588 22.2031 41.4609 22.1665 41.462 22.1299Z" fill="black"/>
<path opacity="0.1" d="M48.9874 25.8869C49.0246 25.3894 49.1468 24.8901 49.1013 24.3945C49.0671 24.892 48.9449 25.3913 48.9874 25.8869Z" fill="black"/>
<path opacity="0.1" d="M40.0111 28.3596C39.951 27.7777 39.6518 27.2333 39.5814 26.6523C39.5673 26.7588 39.5622 26.8661 39.5659 26.9733C39.5907 27.6069 39.9376 28.1991 40.008 28.8298C40.0251 28.6735 40.0261 28.5161 40.0111 28.3596Z" fill="black"/>
<path opacity="0.1" d="M49.4016 30.6715C49.3047 31.0535 49.2698 31.4462 49.2981 31.8372C49.3084 31.6092 49.3431 31.3825 49.4016 31.1605C49.5683 30.5589 49.939 29.9986 49.9691 29.3773C49.974 29.2669 49.9684 29.1564 49.9525 29.0469C49.8717 29.6053 49.5497 30.1253 49.4016 30.6715Z" fill="black"/>
<path opacity="0.1" d="M40.6468 30.7227C40.2149 31.0507 39.6804 31.2477 39.1185 31.2858C39.0004 31.4529 38.8782 31.6162 38.7571 31.7776C39.4439 31.8142 40.1201 31.611 40.6468 31.2098C41.0251 32.3507 41.2279 33.5335 41.2494 34.7247C41.2802 33.3704 41.0768 32.02 40.6468 30.7227V30.7227Z" fill="black"/>
<path opacity="0.1" d="M49.4211 35.9113C49.3072 36.4369 49.0608 37.0207 48.5037 37.1981C48.3643 37.2263 48.2298 37.2718 48.104 37.3333C47.8483 37.4966 47.8659 37.8345 47.811 38.1142C47.722 38.5778 47.3689 38.972 46.9454 39.2404C46.5219 39.5089 46.03 39.6816 45.5444 39.8468L43.6081 40.5038C43.598 40.68 43.5668 40.8546 43.5149 41.0247L45.5444 40.3348C46.03 40.1696 46.5229 40.0016 46.9454 39.7294C47.3678 39.4573 47.722 39.0621 47.811 38.5985C47.8659 38.3169 47.8483 37.9809 48.104 37.8176C48.23 37.7568 48.3645 37.7117 48.5037 37.6834C49.0608 37.505 49.3072 36.9212 49.4211 36.3956C49.539 35.8487 49.588 35.2914 49.5671 34.7344C49.5535 35.1296 49.5047 35.5232 49.4211 35.9113V35.9113Z" fill="black"/>
<path opacity="0.1" d="M42.3668 37.4462C42.3052 37.3835 42.2302 37.3327 42.1463 37.297C42.0565 37.2704 41.962 37.2595 41.8677 37.2651H41.0218C40.9886 37.4284 40.9534 37.5917 40.9182 37.7541H41.8719C41.9661 37.7482 42.0607 37.759 42.1504 37.786C42.2343 37.8213 42.3093 37.8718 42.371 37.9343C43.0233 38.5237 43.5172 39.3177 43.6021 40.1324C43.7067 39.1582 43.1496 38.1558 42.3668 37.4462Z" fill="black"/>
</g>
<path opacity="0.1" d="M37.6357 40.6458C37.6357 40.6458 38.4061 40.3529 38.578 40.6458C38.7499 40.9386 37.6357 40.6458 37.6357 40.6458Z" fill="black"/>
<path opacity="0.1" d="M37.908 41.1477C37.908 41.1477 38.6783 40.8549 38.8513 41.1477C39.0242 41.4406 37.908 41.1477 37.908 41.1477Z" fill="black"/>
<path opacity="0.1" d="M85.654 3.25267C85.654 3.25267 81.7141 3.03773 82.179 5.53996C82.179 5.53996 82.0868 5.98203 82.529 6.18288C82.529 6.18288 82.5362 5.99517 82.9328 6.05993C83.074 6.08147 83.2176 6.08777 83.3605 6.0787C83.5533 6.06659 83.7366 5.99771 83.8823 5.88254V5.88254C83.8823 5.88254 84.9892 5.46863 85.42 3.82801C85.42 3.82801 85.7389 3.46948 85.7306 3.3775L85.0659 3.6356C85.0659 3.6356 85.2926 4.07016 85.1135 4.43151C85.1135 4.43151 85.0928 3.65062 84.9644 3.66939C84.9385 3.66939 84.6196 3.81956 84.6196 3.81956C84.6196 3.81956 85.0099 4.57699 84.7148 5.12793C84.7148 5.12793 84.8267 4.19499 84.4974 3.87494L84.0273 4.12741C84.0273 4.12741 84.4839 4.90924 84.1743 5.54747C84.1743 5.54747 84.2541 4.56854 83.9289 4.18748L83.5044 4.48689C83.5044 4.48689 83.9341 5.2537 83.6752 5.78305C83.6752 5.78305 83.6411 4.64269 83.4153 4.55728C83.4153 4.55728 83.0446 4.85387 82.9887 4.97588C82.9887 4.97588 83.2818 5.53902 83.0995 5.82998C83.0995 5.82998 82.9877 5.07161 82.8924 5.06786C82.8924 5.06786 82.5228 5.57093 82.4845 5.91257C82.5024 5.59379 82.612 5.2848 82.8023 5.01624C82.5891 5.05283 82.3925 5.14554 82.237 5.28279C82.237 5.28279 82.2939 4.92707 82.8935 4.89516C82.8935 4.89516 83.1989 4.5141 83.2807 4.49064C83.2807 4.49064 82.6843 4.44559 82.3229 4.59107C82.3229 4.59107 82.6408 4.25506 83.3905 4.40335L83.8047 4.09362C83.8047 4.09362 83.0198 3.99977 82.6864 4.10395C82.6864 4.10395 83.0695 3.80736 83.9175 4.02323L84.3731 3.77639C84.3731 3.77639 83.7042 3.64499 83.3056 3.69286C83.3056 3.69286 83.726 3.48731 84.5067 3.70975L84.8329 3.57741C84.8329 3.57741 84.3421 3.49012 84.1992 3.47605C84.0563 3.46197 84.048 3.4263 84.048 3.4263C84.3585 3.37946 84.6773 3.41196 84.9685 3.52016C84.9685 3.52016 85.6654 3.29209 85.654 3.25267Z" fill="#6C63FF"/>
<path opacity="0.1" d="M80.0389 1.22363C80.0389 1.22363 76.7254 3.16741 78.7353 4.93286C78.7353 4.93286 78.9496 5.33832 79.4373 5.26323C79.4373 5.26323 79.3213 5.10931 79.6827 4.94694C79.8108 4.88847 79.9308 4.81631 80.0399 4.732C80.1875 4.61859 80.2903 4.46475 80.333 4.29369V4.29369C80.333 4.29369 80.9542 3.36451 80.2294 1.81212C80.2294 1.81212 80.2522 1.35222 80.1818 1.28464L79.8152 1.84778C79.8152 1.84778 80.2822 2.07585 80.3744 2.46254C80.3744 2.46254 79.8473 1.8459 79.7531 1.92944C79.7345 1.94633 79.573 2.23635 79.573 2.23635C79.573 2.23635 80.3837 2.63618 80.5049 3.2378C80.5049 3.2378 79.9871 2.42594 79.5098 2.34616L79.2944 2.79667C79.2944 2.79667 80.1746 3.18149 80.3423 3.86195C80.3423 3.86195 79.7655 3.03038 79.2551 2.89804L79.1101 3.36732C79.1101 3.36732 79.9592 3.75777 80.0948 4.32467C80.0948 4.32467 79.3224 3.42552 79.0842 3.47995C79.0842 3.47995 78.9807 3.91733 79.0138 4.04309C79.0138 4.04309 79.6164 4.33593 79.662 4.67194C79.662 4.67194 79.0759 4.121 79.0003 4.16699C79.0003 4.16699 79.0314 4.77049 79.225 5.06895C79.0314 4.80247 78.9179 4.4948 78.8958 4.17637C78.7479 4.32034 78.65 4.50049 78.6141 4.69446C78.6141 4.69446 78.4277 4.37722 78.8906 4.02995C78.8906 4.02995 78.8906 3.56067 78.9372 3.49591C78.9372 3.49591 78.4277 3.77748 78.231 4.09096C78.231 4.09096 78.2683 3.64983 78.9714 3.37014L79.106 2.89616C79.106 2.89616 78.4101 3.23968 78.2124 3.50529C78.2124 3.50529 78.3273 3.06041 79.1505 2.77884L79.3576 2.3349C79.3576 2.3349 78.7363 2.58925 78.4422 2.84173C78.4422 2.84173 78.6493 2.4494 79.4218 2.21007L79.5978 1.9285C79.5978 1.9285 79.1453 2.12184 79.0211 2.18754C78.8968 2.25324 78.8668 2.22884 78.8668 2.22884C79.0862 2.02424 79.364 1.87898 79.6692 1.8093C79.6692 1.8093 80.0741 1.24991 80.0389 1.22363Z" fill="#6C63FF"/>
<path opacity="0.1" d="M74.9962 3.48794C74.9962 3.48794 73.0154 6.58522 75.69 7.3295C75.69 7.3295 76.0845 7.60263 76.481 7.3295C76.481 7.3295 76.3019 7.24128 76.5421 6.94751C76.6256 6.84265 76.6951 6.72924 76.7492 6.60962C76.8241 6.44777 76.839 6.26828 76.7917 6.0981V6.0981C76.7917 6.0981 76.8797 5.01499 75.4559 3.92907C75.4559 3.92907 75.2489 3.51046 75.1453 3.47949L75.1008 4.13649C75.1008 4.13649 75.6309 4.14775 75.9074 4.45467C75.9074 4.45467 75.1287 4.12147 75.0894 4.23316C75.0811 4.25569 75.0821 4.58043 75.0821 4.58043C75.0821 4.58043 76.013 4.60578 76.4272 5.09195C76.4272 5.09195 75.5574 4.58231 75.0946 4.7062L75.1277 5.19614C75.1277 5.19614 76.1041 5.17736 76.5939 5.71516C76.5939 5.71516 75.662 5.21115 75.1443 5.30313L75.2478 5.78086C75.2478 5.78086 76.2004 5.78086 76.6043 6.2295C76.6043 6.2295 75.4653 5.7452 75.2799 5.8888C75.2799 5.8888 75.4052 6.32242 75.5005 6.42285C75.5005 6.42285 76.1839 6.43598 76.393 6.71662C76.393 6.71662 75.5947 6.46602 75.5502 6.53923C75.5502 6.53923 75.8805 7.06389 76.2025 7.24972C75.897 7.09272 75.6418 6.86629 75.4622 6.59273C75.4026 6.78173 75.4055 6.98241 75.4704 7.16995C75.4704 7.16995 75.1453 6.9644 75.3835 6.46414C75.3835 6.46414 75.1453 6.04554 75.1588 5.96952C75.1588 5.96952 74.8481 6.43223 74.8274 6.78983C74.8274 6.78983 74.639 6.38155 75.1256 5.84375L75.0086 5.36508C75.0086 5.36508 74.5603 5.95731 74.5168 6.27549C74.5168 6.27549 74.3967 5.83155 74.99 5.24306L74.9506 4.76345C74.9506 4.76345 74.522 5.24682 74.3894 5.59127C74.3894 5.59127 74.3749 5.15765 74.9455 4.62549L74.961 4.30168C74.961 4.30168 74.6504 4.65927 74.5768 4.77096C74.5033 4.88265 74.4598 4.8667 74.4598 4.8667C74.5532 4.59392 74.7281 4.34994 74.9651 4.16183C74.9651 4.16183 75.0397 3.49639 74.9962 3.48794Z" fill="#6C63FF"/>
<path d="M92.0035 38.796C91.7104 38.796 91.4239 38.8748 91.1803 39.0224C90.9366 39.17 90.7467 39.3797 90.6345 39.6251C90.5224 39.8706 90.493 40.1406 90.5502 40.4012C90.6074 40.6617 90.7485 40.901 90.9557 41.0888C91.163 41.2767 91.427 41.4046 91.7144 41.4564C92.0018 41.5082 92.2998 41.4816 92.5705 41.38C92.8413 41.2783 93.0727 41.1062 93.2355 40.8853C93.3983 40.6644 93.4852 40.4048 93.4852 40.1391C93.4841 39.7832 93.3277 39.4422 93.05 39.1905C92.7724 38.9388 92.3961 38.797 92.0035 38.796V38.796ZM87.6711 28.2568V29.5999H89.1529L91.8202 34.4974L90.705 36.1427C90.5833 36.3373 90.5194 36.5572 90.5197 36.7809C90.5197 37.6801 91.1979 38.124 92.1174 38.124H100.781V36.8325H92.2986C92.2739 36.8339 92.2491 36.8305 92.2259 36.8226C92.2027 36.8146 92.1817 36.8023 92.1642 36.7864C92.1466 36.7705 92.1331 36.7514 92.1243 36.7304C92.1155 36.7094 92.1117 36.687 92.1132 36.6645C92.1328 36.6065 92.1592 36.5504 92.1919 36.4975L92.9323 35.4378H98.4523C98.719 35.4398 98.9812 35.3751 99.2099 35.2507C99.4386 35.1263 99.6251 34.9472 99.7487 34.733L102.417 30.5742C102.469 30.4686 102.495 30.3538 102.492 30.2382C102.491 30.1517 102.47 30.0664 102.432 29.9871C102.394 29.9079 102.339 29.8364 102.27 29.7769C102.201 29.7174 102.119 29.6711 102.03 29.6407C101.941 29.6103 101.846 29.5964 101.75 29.5999H90.7837L90.0796 28.2568H87.6711ZM99.2983 38.796C99.0053 38.7962 98.7189 38.8751 98.4753 39.0228C98.2318 39.1705 98.0421 39.3804 97.9301 39.6258C97.8181 39.8712 97.7889 40.1413 97.8462 40.4017C97.9035 40.6622 98.0447 40.9014 98.2519 41.0892C98.4592 41.2769 98.7232 41.4047 99.0106 41.4565C99.298 41.5082 99.5959 41.4816 99.8666 41.3799C100.137 41.2782 100.369 41.1061 100.531 40.8852C100.694 40.6644 100.781 40.4047 100.781 40.1391C100.78 39.7831 100.623 39.4419 100.345 39.1902C100.068 38.9385 99.6911 38.7968 99.2983 38.796V38.796Z" fill="#FD3D3D"/>
<path d="M97.4023 31.973H96.1598V30.8467H95.2279V31.973H93.9854V32.8177H95.2279V33.944H96.1598V32.8177H97.4023V31.973Z" fill="white"/>
</g>
<defs>
<linearGradient id="paint0_linear" x1="63.4135" y1="55.9593" x2="63.4135" y2="9.38379" gradientUnits="userSpaceOnUse">
<stop stop-color="#808080" stop-opacity="0.25"/>
<stop offset="0.54" stop-color="#808080" stop-opacity="0.12"/>
<stop offset="1" stop-color="#808080" stop-opacity="0.1"/>
</linearGradient>
<clipPath id="clip0">
<rect width="115.579" height="80.4429" fill="white" transform="translate(0 0.416992)"/>
</clipPath>
</defs>
</svg>
