<svg width="116" height="80" viewBox="0 0 116 80" fill="none" xmlns="http://www.w3.org/2000/svg">
<path d="M65.0961 73.4689C60.7357 73.4811 56.3795 73.1806 52.0579 72.5695C51.9168 72.5505 51.7738 72.5293 51.6317 72.507C50.5709 72.3482 49.5096 72.1667 48.4778 71.9674C43.8347 71.0734 39.4561 69.7677 35.4638 68.0865C22.1785 62.4915 13.8253 63.6823 9.15747 65.6663C4.10583 67.8136 2.16396 71.3266 2.14492 71.3619L1.97876 71.2626C1.99803 71.2269 3.96495 67.6614 9.07177 65.4859C12.066 64.2103 15.5396 63.6528 19.3968 63.8285C24.2115 64.048 29.6412 65.4177 35.5348 67.8996C39.5153 69.5759 43.8816 70.878 48.5122 71.7695C49.5415 71.9682 50.6003 72.1495 51.6592 72.3079C51.8007 72.3301 51.9424 72.3511 52.0831 72.3701C63.7977 74.0666 75.0987 73.0435 82.5166 71.8866C88.6308 70.9331 92.5656 69.8181 92.6047 69.807L92.6547 70.0011C92.6156 70.0123 88.6709 71.1302 82.5446 72.0856C76.768 72.9914 70.9364 73.4537 65.0961 73.4689V73.4689Z" fill="#3F3D56"/>
<path d="M63.1303 15.7377C59.7623 15.7378 56.4834 15.5718 53.3199 15.2401C46.0504 14.4779 39.3771 12.8334 33.4851 10.3521C20.1997 4.75724 11.8466 5.9479 7.17871 7.93207C2.12707 10.0792 0.185195 13.5923 0.166162 13.6276L0 13.5283C0.0192653 13.4925 1.98619 9.92719 7.09301 7.75159C10.0873 6.47596 13.5608 5.91825 17.418 6.09416C22.2328 6.31364 27.6624 7.68337 33.5561 10.1653C46.8624 15.769 61.6692 15.9892 71.7474 15.1878C82.671 14.3189 90.5476 12.0951 90.6259 12.0727L90.6759 12.2668C90.5976 12.2893 82.7067 14.5174 71.7659 15.3881C68.8365 15.6212 65.9521 15.7377 63.1303 15.7377Z" fill="#3F3D56"/>
<path d="M31.5142 19.4629H4.76416V54.6662H31.5142V19.4629Z" fill="#E6E6E6"/>
<path d="M12.3593 22.4297H6.6272V26.4529H12.3593V22.4297Z" fill="white"/>
<path d="M28.8393 30.2754H6.67505V31.6835H28.8393V30.2754Z" fill="white"/>
<path d="M28.8393 33.9961H6.67505V35.4042H28.8393V33.9961Z" fill="white"/>
<path d="M28.8393 37.7178H6.67505V39.1259H28.8393V37.7178Z" fill="white"/>
<path d="M28.8393 41.4395H6.67505V42.8476H28.8393V41.4395Z" fill="white"/>
<path d="M28.8393 45.1602H6.67505V46.5683H28.8393V45.1602Z" fill="white"/>
<path d="M36.7687 54.6154C36.7675 55.9439 36.311 57.2272 35.4831 58.2297C34.6551 59.2322 33.5114 59.8865 32.2619 60.0723C31.0125 60.2582 29.7414 59.963 28.682 59.2412C27.6227 58.5194 26.8464 57.4194 26.4957 56.1433C26.145 54.8671 26.2436 53.5006 26.7732 52.2948C27.3028 51.0891 28.2279 50.125 29.3786 49.5798C30.5292 49.0345 31.8281 48.9448 33.0366 49.327C34.2451 49.7092 35.2819 50.5378 35.9567 51.6603C36.4873 52.5447 36.7689 53.5694 36.7687 54.6154Z" fill="#FD3D3D"/>
<path d="M37.9354 51.6607L32.7631 57.1051C32.438 56.5752 30.627 54.1128 30.627 54.1128C30.8591 53.8659 31.1067 53.6357 31.3683 53.4238L32.8701 55.532L37.3297 50.8369C37.5559 51.0907 37.7587 51.3666 37.9354 51.6607V51.6607Z" fill="white"/>
<path d="M84.3117 0.972571C84.3117 0.972571 80.515 -0.439742 78.0743 5.20951C75.6336 10.8588 71.8369 17.0729 71.8369 17.0729L74.0064 17.6379C74.0064 17.6379 74.5488 13.6834 75.9048 13.1185L75.3624 18.2028C75.3624 18.2028 91.6338 24.1345 98.9559 17.6379L98.6847 15.6606C98.6847 15.6606 99.7695 15.9431 99.7695 17.6379L100.583 16.7905C100.583 16.7905 99.7695 15.0957 97.3288 12.836C95.7268 11.3528 95.1763 8.53111 94.9871 6.76694C94.8454 5.29382 94.2795 3.89972 93.3637 2.76746C91.7418 0.809545 88.7863 -1.27144 84.3117 0.972571Z" fill="#2F2E41"/>
<path d="M107.355 32.9395C107.355 32.9395 114.499 39.2866 115.55 43.0073C116.601 46.7281 111.557 47.1658 111.557 47.1658L100.631 48.2602C100.631 48.2602 100.42 53.513 98.5293 54.1696C96.6381 54.8262 98.1453 45.4833 98.1453 45.4833L108.826 42.3507L103.993 37.0979L107.355 32.9395Z" fill="#FBBEBE"/>
<path d="M73.9437 39.5059L73.1032 51.1058L68.4803 70.8039C68.4803 70.8039 64.2776 79.7774 67.8499 79.9963C71.4221 80.2152 71.212 71.4605 71.212 71.4605L77.9362 52.8568L78.5666 40.1625L73.9437 39.5059Z" fill="#FBBEBE"/>
<path d="M85.711 19.1503C89.5407 19.1503 92.6454 15.9166 92.6454 11.9277C92.6454 7.93875 89.5407 4.70508 85.711 4.70508C81.8812 4.70508 78.7766 7.93875 78.7766 11.9277C78.7766 15.9166 81.8812 19.1503 85.711 19.1503Z" fill="#FBBEBE"/>
<path d="M82.5591 15.4297C82.5591 15.4297 85.0807 24.841 81.0882 27.2485C77.0957 29.656 91.1745 31.407 94.9569 24.1844C94.9569 24.1844 88.2327 21.7768 90.1239 15.4297H82.5591Z" fill="#FBBEBE"/>
<path d="M77.7261 28.343L76.4653 27.9053C76.4653 27.9053 73.9437 28.9996 73.9437 30.9694C73.9437 32.9392 73.5234 40.8184 73.5234 40.8184L79.197 41.475L77.7261 28.343Z" fill="#FD3D3D"/>
<path d="M102.421 71.9858C94.664 73.1827 83.3579 74.1493 71.6328 72.4696C71.6318 72.3489 71.6318 72.2312 71.6318 72.1165C71.6318 71.4336 71.6569 70.7584 71.7072 70.0908C72.3078 61.8714 76.3733 55.0188 77.9463 52.6441C78.0255 52.5234 78.0989 52.4148 78.1646 52.3182C78.4185 51.947 78.5663 51.7509 78.5663 51.7509C78.5663 51.7509 90.754 51.5437 97.0579 54.1699C97.3618 54.3028 97.64 54.4923 97.8787 54.7291C100.229 56.9882 101.61 64.3225 102.421 71.9858Z" fill="#2F2E41"/>
<path d="M97.8987 25.2789C97.8987 25.2789 100.63 23.7469 103.362 27.0299L108.826 33.5959L104.623 38.411L96.6379 33.377L97.8987 25.2789Z" fill="#FD3D3D"/>
<path d="M78.2178 11.9746C80.6726 10.1242 82.6598 7.99285 83.9742 5.45754C83.9742 5.45754 88.4793 10.6712 91.2324 10.9319C93.9854 11.1926 91.4826 4.67549 91.4826 4.67549L86.477 3.37207L81.7217 3.89344L77.9675 6.50027L78.2178 11.9746Z" fill="#2F2E41"/>
<path d="M93.9063 23.7471C93.9063 23.7471 90.9657 28.5898 82.1395 26.2779L77.131 27.7146L76.4653 27.9055C76.4653 27.9055 77.0957 41.0376 78.7768 43.4451C80.4579 45.8527 80.0376 47.1659 79.6173 47.3847C79.1971 47.6036 78.1464 47.1659 78.7768 48.2602C79.4072 49.3545 80.2477 48.6979 79.4072 49.3545C78.5667 50.0111 78.1464 52.4187 78.1464 52.4187L97.8989 55.0451C97.8989 55.0451 97.2685 46.5093 98.9495 42.1319C100.631 37.7546 101.051 36.0036 101.051 36.0036L99.79 25.0603L93.9063 23.7471Z" fill="#FD3D3D"/>
</svg>
