<svg width="116" height="81" viewBox="0 0 116 81" fill="none" xmlns="http://www.w3.org/2000/svg">
<path d="M55.3119 75.7849C72.6049 75.7849 86.6237 61.7661 86.6237 44.473C86.6237 27.1799 72.6049 13.1611 55.3119 13.1611C38.0188 13.1611 24 27.1799 24 44.473C24 61.7661 38.0188 75.7849 55.3119 75.7849Z" fill="#FD3D3D"/>
<path d="M55.3119 73.1935C71.1734 73.1935 84.0317 60.3352 84.0317 44.4737C84.0317 28.6122 71.1734 15.7539 55.3119 15.7539C39.4503 15.7539 26.592 28.6122 26.592 44.4737C26.592 60.3352 39.4503 73.1935 55.3119 73.1935Z" fill="white"/>
<path d="M55.2081 48.4136C57.3267 48.4136 59.0443 46.6961 59.0443 44.5774C59.0443 42.4587 57.3267 40.7412 55.2081 40.7412C53.0894 40.7412 51.3718 42.4587 51.3718 44.5774C51.3718 46.6961 53.0894 48.4136 55.2081 48.4136Z" fill="#FD3D3D"/>
<path d="M56.0376 17.2051H54.3787V20.3155H56.0376V17.2051Z" fill="#FD3D3D"/>
<path d="M56.0376 68.8389H54.3787V71.9493H56.0376V68.8389Z" fill="#FD3D3D"/>
<path d="M30.9468 45.406V43.7471H27.8363V45.406H30.9468Z" fill="#FD3D3D"/>
<path d="M82.5801 45.406V43.7471H79.4696V45.406H82.5801Z" fill="#3F3D56"/>
<path d="M54.1023 46.2417L55.52 43L73.2841 52.8384L54.1023 46.2417Z" fill="#FD3D3D"/>
<path d="M59.3555 5.59277H51.2683V14.9241H59.3555V5.59277Z" fill="#FD3D3D"/>
<path d="M55.3118 8.18408C60.4654 8.18408 64.6432 7.02358 64.6432 5.59204C64.6432 4.1605 60.4654 3 55.3118 3C50.1583 3 45.9805 4.1605 45.9805 5.59204C45.9805 7.02358 50.1583 8.18408 55.3118 8.18408Z" fill="#FD3D3D"/>
<path d="M72.7822 50.0197L72.2638 50.7455C72.2638 50.7455 69.8791 53.5449 69.7754 52.197C69.6717 50.8492 71.538 49.916 71.538 49.916L72.5748 49.2939L72.7822 50.0197Z" fill="#FFB8B8"/>
<path d="M87.5408 52.4689L87.9749 53.248C87.9749 53.248 89.4845 56.6013 88.2219 56.1182C86.9594 55.6351 86.9147 53.549 86.9147 53.549L86.7961 52.3457L87.5408 52.4689Z" fill="#FFB8B8"/>
<path d="M85.2069 38.653C86.9505 38.653 88.3639 37.2395 88.3639 35.4959C88.3639 33.7523 86.9505 32.3389 85.2069 32.3389C83.4633 32.3389 82.0498 33.7523 82.0498 35.4959C82.0498 37.2395 83.4633 38.653 85.2069 38.653Z" fill="#2F2E41"/>
<path d="M84.9131 61.4256L85.3278 64.1213V64.9508H87.7125V63.914C87.7125 63.914 87.8162 62.0477 87.4014 61.5293C86.9867 61.0109 84.9131 61.4256 84.9131 61.4256Z" fill="#FFB8B8"/>
<path d="M80.6621 61.4256L81.0768 64.1213V64.9508H83.4615V63.914C83.4615 63.914 83.5652 62.0477 83.1504 61.5293C82.7357 61.0109 80.6621 61.4256 80.6621 61.4256Z" fill="#FFB8B8"/>
<path d="M82.2667 39.7715C82.2667 39.7715 81.3495 40.2549 81.976 41.3546C82.6025 42.4542 86.2782 53.831 86.2782 53.831L88.3987 53.229L86.5286 46.0341L85.4578 41.5119L82.2667 39.7715Z" fill="#6C63FF"/>
<path d="M84.8612 38.7703C86.1783 38.7703 87.2459 37.7027 87.2459 36.3857C87.2459 35.0686 86.1783 34.001 84.8612 34.001C83.5442 34.001 82.4766 35.0686 82.4766 36.3857C82.4766 37.7027 83.5442 38.7703 84.8612 38.7703Z" fill="#FFB8B8"/>
<path d="M85.9498 36.749L85.6387 41.6221L83.4614 40.0668C83.4614 40.0668 84.1872 37.1637 83.9798 36.9564L85.9498 36.749Z" fill="#FFB8B8"/>
<path d="M85.9498 41.2073L83.6042 39.4704C83.6042 39.4704 82.5283 39.03 82.2172 39.5484C81.9062 40.0668 80.351 47.7393 81.1804 49.1908C81.1804 49.1908 85.6387 50.124 86.5719 49.6056L86.9866 46.9098C86.9866 46.9098 87.505 45.2509 86.6756 44.2141L85.9498 41.2073Z" fill="#6C63FF"/>
<path d="M82.8394 39.6519C82.8394 39.6519 82.0099 39.0298 81.2842 40.0666C80.5584 41.1034 71.8491 49.2943 71.8491 49.2943L73.3007 50.9532L79.0032 46.1838L82.632 43.2807L82.8394 39.6519Z" fill="#6C63FF"/>
<path d="M86.6237 49.5533C86.6237 49.5533 81.4915 48.5684 80.973 49.2941L80.8694 50.4346C80.8694 50.4346 79.7289 52.6119 80.351 56.1371C80.973 59.6623 80.5583 61.8396 80.5583 61.8396C80.5583 61.8396 83.3577 61.5286 85.4314 61.8396C87.505 62.1507 87.816 61.8396 87.816 61.8396L86.6237 49.5533Z" fill="#2F2E41"/>
<path d="M87.9199 64.5352L84.9131 64.6388L85.9499 72.4149C85.9499 72.4149 85.1204 75.7328 86.0536 75.9401C86.7022 76.0711 87.3618 76.1405 88.0235 76.1475C88.0235 76.1475 88.9567 77.0806 89.9935 76.9769C90.682 76.889 91.3492 76.6783 91.9634 76.3548C91.9634 76.3548 92.1708 75.7328 91.445 75.5254C90.7193 75.318 88.7493 74.6959 88.3346 72.5186L87.9199 64.5352Z" fill="#2F2E41"/>
<path d="M83.6689 64.5352L80.6621 64.6388L81.6989 72.4149C81.6989 72.4149 80.8695 75.7328 81.8026 75.9401C82.4513 76.0711 83.1108 76.1405 83.7726 76.1475C83.7726 76.1475 84.7057 77.0806 85.7425 76.9769C86.4311 76.889 87.0983 76.6783 87.7124 76.3548C87.7124 76.3548 87.9198 75.7328 87.194 75.5254C86.4683 75.318 84.4983 74.696 84.0836 72.5186L83.6689 64.5352Z" fill="#2F2E41"/>
<path d="M86.3112 33.4799C87.0327 33.4799 87.6176 32.895 87.6176 32.1736C87.6176 31.4521 87.0327 30.8672 86.3112 30.8672C85.5898 30.8672 85.0049 31.4521 85.0049 32.1736C85.0049 32.895 85.5898 33.4799 86.3112 33.4799Z" fill="#2F2E41"/>
<path d="M88.0531 31.4655C88.0531 31.1426 87.9335 30.8312 87.7174 30.5912C87.5013 30.3513 87.204 30.1999 86.8828 30.1662C86.928 30.1615 86.9734 30.1592 87.0189 30.1592C87.3654 30.1592 87.6976 30.2968 87.9426 30.5418C88.1876 30.7868 88.3253 31.1191 88.3253 31.4655C88.3253 31.812 88.1876 32.1443 87.9426 32.3893C87.6976 32.6343 87.3654 32.7719 87.0189 32.7719C86.9734 32.7719 86.928 32.7695 86.8828 32.7648C87.204 32.7312 87.5013 32.5798 87.7174 32.3398C87.9335 32.0999 88.0531 31.7885 88.0531 31.4655V31.4655Z" fill="#2F2E41"/>
<path d="M84.8396 36.1332C86.0421 36.1332 87.0169 35.5484 87.0169 34.8269C87.0169 34.1054 86.0421 33.5205 84.8396 33.5205C83.6372 33.5205 82.6624 34.1054 82.6624 34.8269C82.6624 35.5484 83.6372 36.1332 84.8396 36.1332Z" fill="#2F2E41"/>
</svg>
