<svg width="116" height="80" viewBox="0 0 116 80" fill="none" xmlns="http://www.w3.org/2000/svg">
<g clip-path="url(#clip0)">
<path d="M110.601 15.562H5.39915C3.96771 15.5604 2.59535 14.9963 1.58316 13.9934C0.570976 12.9905 0.00161677 11.6308 0 10.2125V5.34943C0.00161677 3.93116 0.570976 2.57145 1.58316 1.56858C2.59535 0.565717 3.96771 0.00160235 5.39915 0H110.601C112.032 0.00160188 113.405 0.565714 114.417 1.56858C115.429 2.57145 115.998 3.93116 116 5.34943V10.2125C115.998 11.6308 115.429 12.9905 114.417 13.9934C113.405 14.9963 112.032 15.5604 110.601 15.562V15.562ZM5.39915 0.324206C4.05446 0.325717 2.76528 0.855645 1.81444 1.79773C0.863597 2.73982 0.328744 4.01712 0.32722 5.34943V10.2125C0.328744 11.5449 0.863597 12.8222 1.81444 13.7642C2.76528 14.7063 4.05446 15.2363 5.39915 15.2378H110.601C111.946 15.2363 113.235 14.7063 114.186 13.7642C115.136 12.8222 115.671 11.5449 115.673 10.2125V5.34943C115.671 4.01712 115.136 2.73982 114.186 1.79773C113.235 0.855645 111.946 0.325717 110.601 0.324206H5.39915Z" fill="#3F3D56"/>
<path d="M83.2777 4.70117H13.416C11.6991 4.70117 10.3074 6.08012 10.3074 7.78114V7.78115C10.3074 9.48217 11.6991 10.8611 13.416 10.8611H83.2777C84.9946 10.8611 86.3863 9.48217 86.3863 7.78114C86.3863 6.08012 84.9946 4.70117 83.2777 4.70117Z" fill="#E6E6E6"/>
<path d="M92.4401 31.7148H22.5783C20.8615 31.7148 19.4697 33.0938 19.4697 34.7948V34.7948C19.4697 36.4958 20.8615 37.8748 22.5783 37.8748H92.4401C94.157 37.8748 95.5487 36.4958 95.5487 34.7948C95.5487 33.0938 94.157 31.7148 92.4401 31.7148Z" fill="#FD3D3D"/>
<path d="M92.4401 51.2998H22.5783C20.8615 51.2998 19.4697 52.6788 19.4697 54.3798V54.3798C19.4697 56.0808 20.8615 57.4597 22.5783 57.4597H92.4401C94.157 57.4597 95.5487 56.0808 95.5487 54.3798C95.5487 52.6788 94.157 51.2998 92.4401 51.2998Z" fill="#E6E6E6"/>
<path d="M92.4401 70.8857H22.5783C20.8615 70.8857 19.4697 72.2647 19.4697 73.9657V73.9657C19.4697 75.6667 20.8615 77.0457 22.5783 77.0457H92.4401C94.157 77.0457 95.5487 75.6667 95.5487 73.9657C95.5487 72.2647 94.157 70.8857 92.4401 70.8857Z" fill="#E6E6E6"/>
<path d="M105.773 11.1078C105.699 11.2132 105.585 11.285 105.457 11.3073C105.329 11.3297 105.198 11.3008 105.091 11.227L102.42 9.38543C102.314 9.31164 102.241 9.19899 102.219 9.07229C102.196 8.94558 102.225 8.81519 102.3 8.7098C102.374 8.60441 102.488 8.53265 102.616 8.5103C102.744 8.48796 102.876 8.51687 102.982 8.59066L105.653 10.4322C105.759 10.506 105.832 10.6186 105.854 10.7453C105.877 10.8721 105.848 11.0024 105.773 11.1078Z" fill="#6C63FF"/>
<path d="M102.741 9.01669C102.346 9.57464 101.794 10.0042 101.153 10.2511C100.513 10.4979 99.8124 10.551 99.1412 10.4036C98.4701 10.2562 97.8581 9.91491 97.3828 9.4229C96.9074 8.93089 96.5899 8.31026 96.4705 7.63949C96.3512 6.96872 96.4352 6.27794 96.7121 5.65451C96.9889 5.03107 97.4462 4.50298 98.0259 4.13701C98.6057 3.77104 99.282 3.58362 99.9693 3.59848C100.657 3.61333 101.324 3.82977 101.887 4.22044C102.641 4.74497 103.155 5.54452 103.315 6.44368C103.475 7.34284 103.268 8.26818 102.741 9.01669ZM97.7581 5.56001C97.4624 5.97847 97.2985 6.47441 97.2873 6.98513C97.2761 7.49584 97.4179 7.99839 97.6949 8.42922C97.972 8.86005 98.3717 9.19982 98.8436 9.40555C99.3156 9.61128 99.8385 9.67374 100.346 9.58503C100.854 9.49632 101.324 9.26042 101.696 8.90717C102.069 8.55391 102.327 8.09917 102.439 7.60044C102.55 7.10171 102.51 6.5814 102.323 6.1053C102.136 5.6292 101.811 5.21869 101.389 4.92569C100.822 4.53356 100.122 4.38012 99.441 4.49904C98.7604 4.61795 98.1551 4.99952 97.7581 5.56001V5.56001Z" fill="#FD3D3D"/>
<path d="M107.574 40.8125H8.42582C8.38243 40.8125 8.34081 40.7954 8.31013 40.765C8.27944 40.7346 8.26221 40.6934 8.26221 40.6504C8.26221 40.6074 8.27944 40.5662 8.31013 40.5358C8.34081 40.5054 8.38243 40.4883 8.42582 40.4883H107.574C107.617 40.4883 107.659 40.5054 107.69 40.5358C107.72 40.5662 107.738 40.6074 107.738 40.6504C107.738 40.6934 107.72 40.7346 107.69 40.765C107.659 40.7954 107.617 40.8125 107.574 40.8125Z" fill="#3F3D56"/>
<path d="M107.574 60.4062H8.42582C8.38243 60.4062 8.34081 60.3892 8.31013 60.3588C8.27944 60.3284 8.26221 60.2871 8.26221 60.2441C8.26221 60.2011 8.27944 60.1599 8.31013 60.1295C8.34081 60.0991 8.38243 60.082 8.42582 60.082H107.574C107.617 60.082 107.659 60.0991 107.69 60.1295C107.72 60.1599 107.738 60.2011 107.738 60.2441C107.738 60.2871 107.72 60.3284 107.69 60.3588C107.659 60.3892 107.617 60.4062 107.574 60.4062V60.4062Z" fill="#3F3D56"/>
<path d="M107.574 80H8.42582C8.38243 80 8.34081 79.9829 8.31013 79.9525C8.27944 79.9221 8.26221 79.8809 8.26221 79.8379C8.26221 79.7949 8.27944 79.7537 8.31013 79.7233C8.34081 79.6929 8.38243 79.6758 8.42582 79.6758H107.574C107.617 79.6758 107.659 79.6929 107.69 79.7233C107.72 79.7537 107.738 79.7949 107.738 79.8379C107.738 79.8809 107.72 79.9221 107.69 79.9525C107.659 79.9829 107.617 80 107.574 80V80Z" fill="#3F3D56"/>
</g>
<defs>
<clipPath id="clip0">
<rect width="116" height="80" fill="white"/>
</clipPath>
</defs>
</svg>
